<svg width="860" height="386" viewBox="0 0 860 386" fill="none" xmlns="http://www.w3.org/2000/svg">
<path d="M830 275.5C830 268.596 835.596 263 842.5 263C849.404 263 855 268.596 855 275.5V343H830V275.5Z" fill="#FFC029"/>
<path d="M805 309.5C805 302.596 810.596 297 817.5 297C824.404 297 830 302.596 830 309.5V343H805V309.5Z" fill="#EDEDED"/>
<path d="M5 193.5C5 186.596 10.5964 181 17.5 181C24.4036 181 30 186.596 30 193.5V343H5V193.5Z" fill="#FFC029"/>
<path d="M80 140.5C80 133.596 85.5964 128 92.5 128C99.4036 128 105 133.596 105 140.5V343H80V140.5Z" fill="#FFC029"/>
<path d="M55 176.5C55 169.596 60.5964 164 67.5 164C74.4036 164 80 169.596 80 176.5V343H55V176.5Z" fill="#EDEDED"/>
<path d="M605 140.5C605 133.596 610.596 128 617.5 128C624.404 128 630 133.596 630 140.5V343H605V140.5Z" fill="#FFC029"/>
<path d="M580 177.5C580 170.596 585.596 165 592.5 165C599.404 165 605 170.596 605 177.5V343H580V177.5Z" fill="#EDEDED"/>
<path d="M380 96.5C380 89.5964 385.596 84 392.5 84C399.404 84 405 89.5964 405 96.5V341H380V96.5Z" fill="#FFC029"/>
<path d="M355 153.5C355 146.596 360.596 141 367.5 141C374.404 141 380 146.596 380 153.5V341H355V153.5Z" fill="#EDEDED"/>
<path d="M230 160.5C230 153.596 235.596 148 242.5 148C249.404 148 255 153.596 255 160.5V343H230V160.5Z" fill="#FFC029"/>
<path d="M205 202.5C205 195.596 210.596 190 217.5 190C224.404 190 230 195.596 230 202.5V343H205V202.5Z" fill="#EDEDED"/>
<path d="M455 160.5C455 153.596 460.596 148 467.5 148C474.404 148 480 153.596 480 160.5V343H455V160.5Z" fill="#FFC029"/>
<path d="M430 201.5C430 194.596 435.596 189 442.5 189C449.404 189 455 194.596 455 201.5V343H430V201.5Z" fill="#EDEDED"/>
<path d="M530 193.5C530 186.596 535.596 181 542.5 181C549.404 181 555 186.596 555 193.5V343H530V193.5Z" fill="#FFC029"/>
<path d="M505 225.5C505 218.596 510.596 213 517.5 213C524.404 213 530 218.596 530 225.5V343H505V225.5Z" fill="#EDEDED"/>
<path d="M680 215.5C680 208.596 685.596 203 692.5 203C699.404 203 705 208.596 705 215.5V343H680V215.5Z" fill="#FFC029"/>
<path d="M655 254.5C655 247.596 660.596 242 667.5 242C674.404 242 680 247.596 680 254.5V343H655V254.5Z" fill="#EDEDED"/>
<path d="M755 254.5C755 247.596 760.596 242 767.5 242C774.404 242 780 247.596 780 254.5V343H755V254.5Z" fill="#FFC029"/>
<path d="M730 286.5C730 279.596 735.596 274 742.5 274C749.404 274 755 279.596 755 286.5V343H730V286.5Z" fill="#EDEDED"/>
<path d="M155 65.5C155 58.5964 160.596 53 167.5 53C174.404 53 180 58.5964 180 65.5V343H155V65.5Z" fill="#FFC029"/>
<path d="M130 96.5C130 89.5964 135.596 84 142.5 84C149.404 84 155 89.5964 155 96.5V343H130V96.5Z" fill="#EDEDED"/>
<path d="M305 12.5C305 5.59645 310.596 0 317.5 0C324.404 0 330 5.59644 330 12.5V343H305V12.5Z" fill="#FFC029"/>
<path d="M280 75.5C280 68.5964 285.596 63 292.5 63C299.404 63 305 68.5964 305 75.5V343H280V75.5Z" fill="#EDEDED"/>
<path d="M7.29492 376.732V366.781H9.73633V376.732C9.73633 377.676 9.53451 378.48 9.13086 379.145C8.72721 379.809 8.17708 380.316 7.48047 380.668C6.78385 381.02 5.99284 381.195 5.10742 381.195C4.20247 381.195 3.39844 381.042 2.69531 380.736C1.9987 380.43 1.45182 379.962 1.05469 379.33C0.657552 378.699 0.458984 377.898 0.458984 376.928H2.91992C2.91992 377.488 3.00781 377.94 3.18359 378.285C3.36589 378.624 3.61979 378.871 3.94531 379.027C4.27734 379.177 4.66471 379.252 5.10742 379.252C5.5306 379.252 5.90495 379.158 6.23047 378.969C6.5625 378.773 6.82292 378.49 7.01172 378.119C7.20052 377.742 7.29492 377.279 7.29492 376.732ZM18.2812 378.881V373.842C18.2812 373.464 18.2129 373.139 18.0762 372.865C17.9395 372.592 17.7311 372.38 17.4512 372.23C17.1777 372.081 16.8327 372.006 16.416 372.006C16.0319 372.006 15.6999 372.071 15.4199 372.201C15.14 372.331 14.9219 372.507 14.7656 372.729C14.6094 372.95 14.5312 373.201 14.5312 373.48H12.1875C12.1875 373.064 12.2884 372.66 12.4902 372.27C12.6921 371.879 12.985 371.531 13.3691 371.225C13.7533 370.919 14.2122 370.678 14.7461 370.502C15.2799 370.326 15.8789 370.238 16.543 370.238C17.3372 370.238 18.0404 370.372 18.6523 370.639C19.2708 370.906 19.7559 371.309 20.1074 371.85C20.4655 372.383 20.6445 373.054 20.6445 373.861V378.559C20.6445 379.04 20.6771 379.473 20.7422 379.857C20.8138 380.235 20.9147 380.564 21.0449 380.844V381H18.6328C18.5221 380.746 18.4342 380.424 18.3691 380.033C18.3105 379.636 18.2812 379.252 18.2812 378.881ZM18.623 374.574L18.6426 376.029H16.9531C16.5169 376.029 16.1328 376.072 15.8008 376.156C15.4688 376.234 15.1921 376.352 14.9707 376.508C14.7493 376.664 14.5833 376.853 14.4727 377.074C14.362 377.296 14.3066 377.546 14.3066 377.826C14.3066 378.106 14.3717 378.363 14.502 378.598C14.6322 378.826 14.821 379.005 15.0684 379.135C15.3223 379.265 15.6283 379.33 15.9863 379.33C16.4681 379.33 16.888 379.232 17.2461 379.037C17.6107 378.835 17.8971 378.591 18.1055 378.305C18.3138 378.012 18.4245 377.735 18.4375 377.475L19.1992 378.52C19.1211 378.786 18.9876 379.073 18.7988 379.379C18.61 379.685 18.3626 379.978 18.0566 380.258C17.7572 380.531 17.3958 380.756 16.9727 380.932C16.556 381.107 16.0742 381.195 15.5273 381.195C14.8372 381.195 14.222 381.059 13.6816 380.785C13.1413 380.505 12.7181 380.131 12.4121 379.662C12.1061 379.187 11.9531 378.65 11.9531 378.051C11.9531 377.491 12.0573 376.996 12.2656 376.566C12.4805 376.13 12.793 375.766 13.2031 375.473C13.6198 375.18 14.1276 374.958 14.7266 374.809C15.3255 374.652 16.0091 374.574 16.7773 374.574H18.623ZM25.4395 372.689V381H23.0859V370.434H25.3027L25.4395 372.689ZM25.0195 375.326L24.2578 375.316C24.2643 374.568 24.3685 373.881 24.5703 373.256C24.7786 372.631 25.0651 372.094 25.4297 371.645C25.8008 371.195 26.2435 370.85 26.7578 370.609C27.2721 370.362 27.8451 370.238 28.4766 370.238C28.9844 370.238 29.4434 370.31 29.8535 370.453C30.2702 370.59 30.625 370.814 30.918 371.127C31.2174 371.439 31.4453 371.846 31.6016 372.348C31.7578 372.842 31.8359 373.451 31.8359 374.174V381H29.4727V374.164C29.4727 373.656 29.3978 373.256 29.248 372.963C29.1048 372.663 28.8932 372.452 28.6133 372.328C28.3398 372.198 27.998 372.133 27.5879 372.133C27.1842 372.133 26.8229 372.217 26.5039 372.387C26.1849 372.556 25.9147 372.787 25.6934 373.08C25.4785 373.373 25.3125 373.712 25.1953 374.096C25.0781 374.48 25.0195 374.89 25.0195 375.326Z" fill="#A7A7A7"/>
<path d="M79.8965 366.781V381H77.4453V366.781H79.8965ZM85.6973 373.002V374.945H79.2715V373.002H85.6973ZM86.5078 366.781V368.734H79.2715V366.781H86.5078ZM92.6699 381.195C91.8887 381.195 91.1823 381.068 90.5508 380.814C89.9258 380.554 89.3919 380.193 88.9492 379.73C88.513 379.268 88.1777 378.725 87.9434 378.1C87.709 377.475 87.5918 376.801 87.5918 376.078V375.688C87.5918 374.861 87.7122 374.112 87.9531 373.441C88.194 372.771 88.5293 372.198 88.959 371.723C89.3887 371.241 89.8965 370.873 90.4824 370.619C91.0684 370.365 91.7031 370.238 92.3867 370.238C93.1419 370.238 93.8027 370.365 94.3691 370.619C94.9355 370.873 95.4043 371.231 95.7754 371.693C96.153 372.149 96.4329 372.693 96.6152 373.324C96.804 373.956 96.8984 374.652 96.8984 375.414V376.42H88.7344V374.73H94.5742V374.545C94.5612 374.122 94.4766 373.725 94.3203 373.354C94.1706 372.982 93.9395 372.683 93.627 372.455C93.3145 372.227 92.8978 372.113 92.377 372.113C91.9863 372.113 91.638 372.198 91.332 372.367C91.0326 372.53 90.7819 372.768 90.5801 373.08C90.3783 373.393 90.222 373.77 90.1113 374.213C90.0072 374.649 89.9551 375.141 89.9551 375.688V376.078C89.9551 376.54 90.0169 376.97 90.1406 377.367C90.2708 377.758 90.4596 378.1 90.707 378.393C90.9544 378.686 91.2539 378.917 91.6055 379.086C91.957 379.249 92.3574 379.33 92.8066 379.33C93.373 379.33 93.8776 379.216 94.3203 378.988C94.763 378.76 95.1471 378.438 95.4727 378.021L96.7129 379.223C96.485 379.555 96.1888 379.874 95.8242 380.18C95.4596 380.479 95.0137 380.723 94.4863 380.912C93.9655 381.101 93.36 381.195 92.6699 381.195ZM98.7441 366H101.098V378.744L100.873 381H98.7441V366ZM107.992 375.619V375.824C107.992 376.605 107.904 377.325 107.729 377.982C107.559 378.633 107.299 379.2 106.947 379.682C106.602 380.163 106.173 380.538 105.658 380.805C105.15 381.065 104.561 381.195 103.891 381.195C103.233 381.195 102.66 381.072 102.172 380.824C101.684 380.577 101.273 380.225 100.941 379.77C100.616 379.314 100.352 378.77 100.15 378.139C99.9486 377.507 99.8053 376.811 99.7207 376.049V375.395C99.8053 374.626 99.9486 373.93 100.15 373.305C100.352 372.673 100.616 372.13 100.941 371.674C101.273 371.212 101.68 370.857 102.162 370.609C102.65 370.362 103.22 370.238 103.871 370.238C104.548 370.238 105.144 370.368 105.658 370.629C106.179 370.889 106.612 371.26 106.957 371.742C107.302 372.217 107.559 372.784 107.729 373.441C107.904 374.099 107.992 374.825 107.992 375.619ZM105.639 375.824V375.619C105.639 375.144 105.6 374.698 105.521 374.281C105.443 373.858 105.313 373.487 105.131 373.168C104.955 372.849 104.714 372.598 104.408 372.416C104.109 372.227 103.734 372.133 103.285 372.133C102.868 372.133 102.51 372.204 102.211 372.348C101.911 372.491 101.661 372.686 101.459 372.934C101.257 373.181 101.098 373.467 100.98 373.793C100.87 374.118 100.795 374.47 100.756 374.848V376.615C100.814 377.104 100.938 377.553 101.127 377.963C101.322 378.367 101.596 378.692 101.947 378.939C102.299 379.18 102.751 379.301 103.305 379.301C103.741 379.301 104.109 379.213 104.408 379.037C104.708 378.861 104.945 378.617 105.121 378.305C105.303 377.986 105.434 377.615 105.512 377.191C105.596 376.768 105.639 376.312 105.639 375.824Z" fill="#A7A7A7"/>
<path d="M151.441 366.781H153.629L157.74 377.748L161.842 366.781H164.029L158.6 381H156.861L151.441 366.781ZM150.445 366.781H152.525L152.887 376.273V381H150.445V366.781ZM162.945 366.781H165.035V381H162.584V376.273L162.945 366.781ZM173.668 378.881V373.842C173.668 373.464 173.6 373.139 173.463 372.865C173.326 372.592 173.118 372.38 172.838 372.23C172.564 372.081 172.219 372.006 171.803 372.006C171.419 372.006 171.087 372.071 170.807 372.201C170.527 372.331 170.309 372.507 170.152 372.729C169.996 372.95 169.918 373.201 169.918 373.48H167.574C167.574 373.064 167.675 372.66 167.877 372.27C168.079 371.879 168.372 371.531 168.756 371.225C169.14 370.919 169.599 370.678 170.133 370.502C170.667 370.326 171.266 370.238 171.93 370.238C172.724 370.238 173.427 370.372 174.039 370.639C174.658 370.906 175.143 371.309 175.494 371.85C175.852 372.383 176.031 373.054 176.031 373.861V378.559C176.031 379.04 176.064 379.473 176.129 379.857C176.201 380.235 176.301 380.564 176.432 380.844V381H174.02C173.909 380.746 173.821 380.424 173.756 380.033C173.697 379.636 173.668 379.252 173.668 378.881ZM174.01 374.574L174.029 376.029H172.34C171.904 376.029 171.52 376.072 171.188 376.156C170.855 376.234 170.579 376.352 170.357 376.508C170.136 376.664 169.97 376.853 169.859 377.074C169.749 377.296 169.693 377.546 169.693 377.826C169.693 378.106 169.758 378.363 169.889 378.598C170.019 378.826 170.208 379.005 170.455 379.135C170.709 379.265 171.015 379.33 171.373 379.33C171.855 379.33 172.275 379.232 172.633 379.037C172.997 378.835 173.284 378.591 173.492 378.305C173.701 378.012 173.811 377.735 173.824 377.475L174.586 378.52C174.508 378.786 174.374 379.073 174.186 379.379C173.997 379.685 173.749 379.978 173.443 380.258C173.144 380.531 172.783 380.756 172.359 380.932C171.943 381.107 171.461 381.195 170.914 381.195C170.224 381.195 169.609 381.059 169.068 380.785C168.528 380.505 168.105 380.131 167.799 379.662C167.493 379.187 167.34 378.65 167.34 378.051C167.34 377.491 167.444 376.996 167.652 376.566C167.867 376.13 168.18 375.766 168.59 375.473C169.007 375.18 169.514 374.958 170.113 374.809C170.712 374.652 171.396 374.574 172.164 374.574H174.01ZM180.855 372.445V381H178.502V370.434H180.748L180.855 372.445ZM184.088 370.365L184.068 372.553C183.925 372.527 183.769 372.507 183.6 372.494C183.437 372.481 183.274 372.475 183.111 372.475C182.708 372.475 182.353 372.533 182.047 372.65C181.741 372.761 181.484 372.924 181.275 373.139C181.074 373.347 180.917 373.601 180.807 373.9C180.696 374.2 180.631 374.535 180.611 374.906L180.074 374.945C180.074 374.281 180.139 373.666 180.27 373.1C180.4 372.533 180.595 372.035 180.855 371.605C181.122 371.176 181.454 370.84 181.852 370.6C182.255 370.359 182.721 370.238 183.248 370.238C183.391 370.238 183.544 370.251 183.707 370.277C183.876 370.303 184.003 370.333 184.088 370.365Z" fill="#A7A7A7"/>
<path d="M151.441 366.781H153.629L157.74 377.748L161.842 366.781H164.029L158.6 381H156.861L151.441 366.781ZM150.445 366.781H152.525L152.887 376.273V381H150.445V366.781ZM162.945 366.781H165.035V381H162.584V376.273L162.945 366.781ZM173.668 378.881V373.842C173.668 373.464 173.6 373.139 173.463 372.865C173.326 372.592 173.118 372.38 172.838 372.23C172.564 372.081 172.219 372.006 171.803 372.006C171.419 372.006 171.087 372.071 170.807 372.201C170.527 372.331 170.309 372.507 170.152 372.729C169.996 372.95 169.918 373.201 169.918 373.48H167.574C167.574 373.064 167.675 372.66 167.877 372.27C168.079 371.879 168.372 371.531 168.756 371.225C169.14 370.919 169.599 370.678 170.133 370.502C170.667 370.326 171.266 370.238 171.93 370.238C172.724 370.238 173.427 370.372 174.039 370.639C174.658 370.906 175.143 371.309 175.494 371.85C175.852 372.383 176.031 373.054 176.031 373.861V378.559C176.031 379.04 176.064 379.473 176.129 379.857C176.201 380.235 176.301 380.564 176.432 380.844V381H174.02C173.909 380.746 173.821 380.424 173.756 380.033C173.697 379.636 173.668 379.252 173.668 378.881ZM174.01 374.574L174.029 376.029H172.34C171.904 376.029 171.52 376.072 171.188 376.156C170.855 376.234 170.579 376.352 170.357 376.508C170.136 376.664 169.97 376.853 169.859 377.074C169.749 377.296 169.693 377.546 169.693 377.826C169.693 378.106 169.758 378.363 169.889 378.598C170.019 378.826 170.208 379.005 170.455 379.135C170.709 379.265 171.015 379.33 171.373 379.33C171.855 379.33 172.275 379.232 172.633 379.037C172.997 378.835 173.284 378.591 173.492 378.305C173.701 378.012 173.811 377.735 173.824 377.475L174.586 378.52C174.508 378.786 174.374 379.073 174.186 379.379C173.997 379.685 173.749 379.978 173.443 380.258C173.144 380.531 172.783 380.756 172.359 380.932C171.943 381.107 171.461 381.195 170.914 381.195C170.224 381.195 169.609 381.059 169.068 380.785C168.528 380.505 168.105 380.131 167.799 379.662C167.493 379.187 167.34 378.65 167.34 378.051C167.34 377.491 167.444 376.996 167.652 376.566C167.867 376.13 168.18 375.766 168.59 375.473C169.007 375.18 169.514 374.958 170.113 374.809C170.712 374.652 171.396 374.574 172.164 374.574H174.01ZM180.855 372.445V381H178.502V370.434H180.748L180.855 372.445ZM184.088 370.365L184.068 372.553C183.925 372.527 183.769 372.507 183.6 372.494C183.437 372.481 183.274 372.475 183.111 372.475C182.708 372.475 182.353 372.533 182.047 372.65C181.741 372.761 181.484 372.924 181.275 373.139C181.074 373.347 180.917 373.601 180.807 373.9C180.696 374.2 180.631 374.535 180.611 374.906L180.074 374.945C180.074 374.281 180.139 373.666 180.27 373.1C180.4 372.533 180.595 372.035 180.855 371.605C181.122 371.176 181.454 370.84 181.852 370.6C182.255 370.359 182.721 370.238 183.248 370.238C183.391 370.238 183.544 370.251 183.707 370.277C183.876 370.303 184.003 370.333 184.088 370.365Z" fill="#A7A7A7"/>
<path d="M230.982 368.676L226.734 381H224.166L229.518 366.781H231.158L230.982 368.676ZM234.537 381L230.279 368.676L230.094 366.781H231.744L237.115 381H234.537ZM234.332 375.727V377.67H226.598V375.727H234.332ZM240.66 372.465V385.062H238.307V370.434H240.475L240.66 372.465ZM247.545 375.619V375.824C247.545 376.592 247.454 377.305 247.271 377.963C247.096 378.614 246.832 379.184 246.48 379.672C246.135 380.154 245.709 380.528 245.201 380.795C244.693 381.062 244.107 381.195 243.443 381.195C242.786 381.195 242.21 381.075 241.715 380.834C241.227 380.587 240.813 380.238 240.475 379.789C240.136 379.34 239.863 378.812 239.654 378.207C239.452 377.595 239.309 376.924 239.225 376.195V375.404C239.309 374.63 239.452 373.926 239.654 373.295C239.863 372.663 240.136 372.12 240.475 371.664C240.813 371.208 241.227 370.857 241.715 370.609C242.203 370.362 242.773 370.238 243.424 370.238C244.088 370.238 244.677 370.368 245.191 370.629C245.706 370.883 246.139 371.247 246.49 371.723C246.842 372.191 247.105 372.758 247.281 373.422C247.457 374.079 247.545 374.812 247.545 375.619ZM245.191 375.824V375.619C245.191 375.131 245.146 374.678 245.055 374.262C244.964 373.839 244.82 373.467 244.625 373.148C244.43 372.829 244.179 372.582 243.873 372.406C243.574 372.224 243.212 372.133 242.789 372.133C242.372 372.133 242.014 372.204 241.715 372.348C241.415 372.484 241.165 372.676 240.963 372.924C240.761 373.171 240.605 373.461 240.494 373.793C240.383 374.118 240.305 374.473 240.26 374.857V376.752C240.338 377.221 240.471 377.65 240.66 378.041C240.849 378.432 241.116 378.744 241.461 378.979C241.812 379.206 242.262 379.32 242.809 379.32C243.232 379.32 243.593 379.229 243.893 379.047C244.192 378.865 244.436 378.614 244.625 378.295C244.82 377.969 244.964 377.595 245.055 377.172C245.146 376.749 245.191 376.299 245.191 375.824ZM251.91 372.445V381H249.557V370.434H251.803L251.91 372.445ZM255.143 370.365L255.123 372.553C254.98 372.527 254.824 372.507 254.654 372.494C254.492 372.481 254.329 372.475 254.166 372.475C253.762 372.475 253.408 372.533 253.102 372.65C252.796 372.761 252.538 372.924 252.33 373.139C252.128 373.347 251.972 373.601 251.861 373.9C251.751 374.2 251.686 374.535 251.666 374.906L251.129 374.945C251.129 374.281 251.194 373.666 251.324 373.1C251.454 372.533 251.65 372.035 251.91 371.605C252.177 371.176 252.509 370.84 252.906 370.6C253.31 370.359 253.775 370.238 254.303 370.238C254.446 370.238 254.599 370.251 254.762 370.277C254.931 370.303 255.058 370.333 255.143 370.365Z" fill="#A7A7A7"/>
<path d="M300.441 366.781H302.629L306.74 377.748L310.842 366.781H313.029L307.6 381H305.861L300.441 366.781ZM299.445 366.781H301.525L301.887 376.273V381H299.445V366.781ZM311.945 366.781H314.035V381H311.584V376.273L311.945 366.781ZM322.668 378.881V373.842C322.668 373.464 322.6 373.139 322.463 372.865C322.326 372.592 322.118 372.38 321.838 372.23C321.564 372.081 321.219 372.006 320.803 372.006C320.419 372.006 320.087 372.071 319.807 372.201C319.527 372.331 319.309 372.507 319.152 372.729C318.996 372.95 318.918 373.201 318.918 373.48H316.574C316.574 373.064 316.675 372.66 316.877 372.27C317.079 371.879 317.372 371.531 317.756 371.225C318.14 370.919 318.599 370.678 319.133 370.502C319.667 370.326 320.266 370.238 320.93 370.238C321.724 370.238 322.427 370.372 323.039 370.639C323.658 370.906 324.143 371.309 324.494 371.85C324.852 372.383 325.031 373.054 325.031 373.861V378.559C325.031 379.04 325.064 379.473 325.129 379.857C325.201 380.235 325.301 380.564 325.432 380.844V381H323.02C322.909 380.746 322.821 380.424 322.756 380.033C322.697 379.636 322.668 379.252 322.668 378.881ZM323.01 374.574L323.029 376.029H321.34C320.904 376.029 320.52 376.072 320.188 376.156C319.855 376.234 319.579 376.352 319.357 376.508C319.136 376.664 318.97 376.853 318.859 377.074C318.749 377.296 318.693 377.546 318.693 377.826C318.693 378.106 318.758 378.363 318.889 378.598C319.019 378.826 319.208 379.005 319.455 379.135C319.709 379.265 320.015 379.33 320.373 379.33C320.855 379.33 321.275 379.232 321.633 379.037C321.997 378.835 322.284 378.591 322.492 378.305C322.701 378.012 322.811 377.735 322.824 377.475L323.586 378.52C323.508 378.786 323.374 379.073 323.186 379.379C322.997 379.685 322.749 379.978 322.443 380.258C322.144 380.531 321.783 380.756 321.359 380.932C320.943 381.107 320.461 381.195 319.914 381.195C319.224 381.195 318.609 381.059 318.068 380.785C317.528 380.505 317.105 380.131 316.799 379.662C316.493 379.187 316.34 378.65 316.34 378.051C316.34 377.491 316.444 376.996 316.652 376.566C316.867 376.13 317.18 375.766 317.59 375.473C318.007 375.18 318.514 374.958 319.113 374.809C319.712 374.652 320.396 374.574 321.164 374.574H323.01ZM330.402 379.848L333.273 370.434H335.793L331.555 382.611C331.457 382.872 331.33 383.155 331.174 383.461C331.018 383.767 330.812 384.057 330.559 384.33C330.311 384.61 330.002 384.835 329.631 385.004C329.26 385.18 328.811 385.268 328.283 385.268C328.075 385.268 327.873 385.248 327.678 385.209C327.489 385.176 327.31 385.141 327.141 385.102L327.131 383.305C327.196 383.311 327.274 383.318 327.365 383.324C327.463 383.331 327.541 383.334 327.6 383.334C327.99 383.334 328.316 383.285 328.576 383.188C328.837 383.096 329.048 382.947 329.211 382.738C329.38 382.53 329.523 382.25 329.641 381.898L330.402 379.848ZM328.781 370.434L331.291 378.344L331.711 380.824L330.08 381.244L326.242 370.434H328.781Z" fill="#A7A7A7"/>
<path d="M382.295 376.732V366.781H384.736V376.732C384.736 377.676 384.535 378.48 384.131 379.145C383.727 379.809 383.177 380.316 382.48 380.668C381.784 381.02 380.993 381.195 380.107 381.195C379.202 381.195 378.398 381.042 377.695 380.736C376.999 380.43 376.452 379.962 376.055 379.33C375.658 378.699 375.459 377.898 375.459 376.928H377.92C377.92 377.488 378.008 377.94 378.184 378.285C378.366 378.624 378.62 378.871 378.945 379.027C379.277 379.177 379.665 379.252 380.107 379.252C380.531 379.252 380.905 379.158 381.23 378.969C381.562 378.773 381.823 378.49 382.012 378.119C382.201 377.742 382.295 377.279 382.295 376.732ZM393.682 378.51V370.434H396.045V381H393.818L393.682 378.51ZM394.014 376.312L394.805 376.293C394.805 377.003 394.727 377.657 394.57 378.256C394.414 378.848 394.173 379.366 393.848 379.809C393.522 380.245 393.105 380.587 392.598 380.834C392.09 381.075 391.481 381.195 390.771 381.195C390.257 381.195 389.785 381.12 389.355 380.971C388.926 380.821 388.555 380.59 388.242 380.277C387.936 379.965 387.699 379.558 387.529 379.057C387.36 378.555 387.275 377.956 387.275 377.26V370.434H389.629V377.279C389.629 377.663 389.674 377.986 389.766 378.246C389.857 378.5 389.98 378.705 390.137 378.861C390.293 379.018 390.475 379.128 390.684 379.193C390.892 379.258 391.113 379.291 391.348 379.291C392.018 379.291 392.546 379.161 392.93 378.9C393.32 378.633 393.597 378.275 393.76 377.826C393.929 377.377 394.014 376.872 394.014 376.312ZM400.791 372.689V381H398.438V370.434H400.654L400.791 372.689ZM400.371 375.326L399.609 375.316C399.616 374.568 399.72 373.881 399.922 373.256C400.13 372.631 400.417 372.094 400.781 371.645C401.152 371.195 401.595 370.85 402.109 370.609C402.624 370.362 403.197 370.238 403.828 370.238C404.336 370.238 404.795 370.31 405.205 370.453C405.622 370.59 405.977 370.814 406.27 371.127C406.569 371.439 406.797 371.846 406.953 372.348C407.109 372.842 407.188 373.451 407.188 374.174V381H404.824V374.164C404.824 373.656 404.749 373.256 404.6 372.963C404.456 372.663 404.245 372.452 403.965 372.328C403.691 372.198 403.35 372.133 402.939 372.133C402.536 372.133 402.174 372.217 401.855 372.387C401.536 372.556 401.266 372.787 401.045 373.08C400.83 373.373 400.664 373.712 400.547 374.096C400.43 374.48 400.371 374.89 400.371 375.326Z" fill="#A7A7A7"/>
<path d="M458.295 376.732V366.781H460.736V376.732C460.736 377.676 460.535 378.48 460.131 379.145C459.727 379.809 459.177 380.316 458.48 380.668C457.784 381.02 456.993 381.195 456.107 381.195C455.202 381.195 454.398 381.042 453.695 380.736C452.999 380.43 452.452 379.962 452.055 379.33C451.658 378.699 451.459 377.898 451.459 376.928H453.92C453.92 377.488 454.008 377.94 454.184 378.285C454.366 378.624 454.62 378.871 454.945 379.027C455.277 379.177 455.665 379.252 456.107 379.252C456.531 379.252 456.905 379.158 457.23 378.969C457.562 378.773 457.823 378.49 458.012 378.119C458.201 377.742 458.295 377.279 458.295 376.732ZM469.682 378.51V370.434H472.045V381H469.818L469.682 378.51ZM470.014 376.312L470.805 376.293C470.805 377.003 470.727 377.657 470.57 378.256C470.414 378.848 470.173 379.366 469.848 379.809C469.522 380.245 469.105 380.587 468.598 380.834C468.09 381.075 467.481 381.195 466.771 381.195C466.257 381.195 465.785 381.12 465.355 380.971C464.926 380.821 464.555 380.59 464.242 380.277C463.936 379.965 463.699 379.558 463.529 379.057C463.36 378.555 463.275 377.956 463.275 377.26V370.434H465.629V377.279C465.629 377.663 465.674 377.986 465.766 378.246C465.857 378.5 465.98 378.705 466.137 378.861C466.293 379.018 466.475 379.128 466.684 379.193C466.892 379.258 467.113 379.291 467.348 379.291C468.018 379.291 468.546 379.161 468.93 378.9C469.32 378.633 469.597 378.275 469.76 377.826C469.929 377.377 470.014 376.872 470.014 376.312ZM476.977 366V381H474.613V366H476.977Z" fill="#A7A7A7"/>
<path d="M531.982 368.676L527.734 381H525.166L530.518 366.781H532.158L531.982 368.676ZM535.537 381L531.279 368.676L531.094 366.781H532.744L538.115 381H535.537ZM535.332 375.727V377.67H527.598V375.727H535.332ZM545.713 378.51V370.434H548.076V381H545.85L545.713 378.51ZM546.045 376.312L546.836 376.293C546.836 377.003 546.758 377.657 546.602 378.256C546.445 378.848 546.204 379.366 545.879 379.809C545.553 380.245 545.137 380.587 544.629 380.834C544.121 381.075 543.512 381.195 542.803 381.195C542.288 381.195 541.816 381.12 541.387 380.971C540.957 380.821 540.586 380.59 540.273 380.277C539.967 379.965 539.73 379.558 539.561 379.057C539.391 378.555 539.307 377.956 539.307 377.26V370.434H541.66V377.279C541.66 377.663 541.706 377.986 541.797 378.246C541.888 378.5 542.012 378.705 542.168 378.861C542.324 379.018 542.507 379.128 542.715 379.193C542.923 379.258 543.145 379.291 543.379 379.291C544.049 379.291 544.577 379.161 544.961 378.9C545.352 378.633 545.628 378.275 545.791 377.826C545.96 377.377 546.045 376.872 546.045 376.312ZM557.256 370.434H559.395V380.707C559.395 381.658 559.193 382.465 558.789 383.129C558.385 383.793 557.822 384.298 557.1 384.643C556.377 384.994 555.54 385.17 554.59 385.17C554.186 385.17 553.737 385.111 553.242 384.994C552.754 384.877 552.279 384.688 551.816 384.428C551.361 384.174 550.98 383.839 550.674 383.422L551.777 382.035C552.155 382.484 552.572 382.813 553.027 383.021C553.483 383.23 553.962 383.334 554.463 383.334C555.003 383.334 555.462 383.233 555.84 383.031C556.224 382.836 556.52 382.546 556.729 382.162C556.937 381.778 557.041 381.309 557.041 380.756V372.826L557.256 370.434ZM550.078 375.834V375.629C550.078 374.828 550.176 374.099 550.371 373.441C550.566 372.777 550.846 372.208 551.211 371.732C551.576 371.251 552.018 370.883 552.539 370.629C553.06 370.368 553.649 370.238 554.307 370.238C554.99 370.238 555.573 370.362 556.055 370.609C556.543 370.857 556.95 371.212 557.275 371.674C557.601 372.13 557.855 372.676 558.037 373.314C558.226 373.946 558.366 374.649 558.457 375.424V376.078C558.372 376.833 558.229 377.523 558.027 378.148C557.826 378.773 557.559 379.314 557.227 379.77C556.895 380.225 556.484 380.577 555.996 380.824C555.514 381.072 554.945 381.195 554.287 381.195C553.643 381.195 553.06 381.062 552.539 380.795C552.025 380.528 551.582 380.154 551.211 379.672C550.846 379.19 550.566 378.624 550.371 377.973C550.176 377.315 550.078 376.602 550.078 375.834ZM552.432 375.629V375.834C552.432 376.316 552.477 376.765 552.568 377.182C552.666 377.598 552.812 377.966 553.008 378.285C553.21 378.598 553.464 378.845 553.77 379.027C554.082 379.203 554.45 379.291 554.873 379.291C555.426 379.291 555.879 379.174 556.23 378.939C556.589 378.705 556.862 378.389 557.051 377.992C557.246 377.589 557.383 377.139 557.461 376.645V374.877C557.422 374.493 557.34 374.135 557.217 373.803C557.1 373.471 556.94 373.181 556.738 372.934C556.536 372.68 556.283 372.484 555.977 372.348C555.671 372.204 555.309 372.133 554.893 372.133C554.469 372.133 554.102 372.224 553.789 372.406C553.477 372.589 553.219 372.839 553.018 373.158C552.822 373.477 552.676 373.848 552.578 374.271C552.48 374.695 552.432 375.147 552.432 375.629Z" fill="#A7A7A7"/>
<path d="M608.926 377.338C608.926 377.045 608.88 376.785 608.789 376.557C608.704 376.329 608.551 376.12 608.33 375.932C608.109 375.743 607.796 375.561 607.393 375.385C606.995 375.202 606.488 375.017 605.869 374.828C605.192 374.62 604.567 374.389 603.994 374.135C603.428 373.874 602.933 373.575 602.51 373.236C602.087 372.891 601.758 372.497 601.523 372.055C601.289 371.605 601.172 371.088 601.172 370.502C601.172 369.923 601.292 369.395 601.533 368.92C601.781 368.445 602.129 368.035 602.578 367.689C603.034 367.338 603.571 367.068 604.189 366.879C604.808 366.684 605.492 366.586 606.24 366.586C607.295 366.586 608.203 366.781 608.965 367.172C609.733 367.562 610.322 368.087 610.732 368.744C611.149 369.402 611.357 370.128 611.357 370.922H608.926C608.926 370.453 608.825 370.04 608.623 369.682C608.428 369.317 608.128 369.031 607.725 368.822C607.327 368.614 606.823 368.51 606.211 368.51C605.632 368.51 605.15 368.598 604.766 368.773C604.382 368.949 604.095 369.187 603.906 369.486C603.717 369.786 603.623 370.124 603.623 370.502C603.623 370.769 603.685 371.013 603.809 371.234C603.932 371.449 604.121 371.651 604.375 371.84C604.629 372.022 604.948 372.195 605.332 372.357C605.716 372.52 606.169 372.676 606.689 372.826C607.477 373.061 608.164 373.321 608.75 373.607C609.336 373.887 609.824 374.206 610.215 374.564C610.605 374.923 610.898 375.329 611.094 375.785C611.289 376.234 611.387 376.745 611.387 377.318C611.387 377.917 611.266 378.458 611.025 378.939C610.785 379.415 610.439 379.822 609.99 380.16C609.548 380.492 609.014 380.749 608.389 380.932C607.77 381.107 607.08 381.195 606.318 381.195C605.635 381.195 604.961 381.104 604.297 380.922C603.639 380.74 603.04 380.463 602.5 380.092C601.96 379.714 601.53 379.245 601.211 378.686C600.892 378.119 600.732 377.458 600.732 376.703H603.184C603.184 377.165 603.262 377.559 603.418 377.885C603.581 378.21 603.805 378.477 604.092 378.686C604.378 378.887 604.71 379.037 605.088 379.135C605.472 379.232 605.882 379.281 606.318 379.281C606.891 379.281 607.37 379.2 607.754 379.037C608.145 378.874 608.438 378.646 608.633 378.354C608.828 378.061 608.926 377.722 608.926 377.338ZM617.979 381.195C617.197 381.195 616.491 381.068 615.859 380.814C615.234 380.554 614.701 380.193 614.258 379.73C613.822 379.268 613.486 378.725 613.252 378.1C613.018 377.475 612.9 376.801 612.9 376.078V375.688C612.9 374.861 613.021 374.112 613.262 373.441C613.503 372.771 613.838 372.198 614.268 371.723C614.697 371.241 615.205 370.873 615.791 370.619C616.377 370.365 617.012 370.238 617.695 370.238C618.451 370.238 619.111 370.365 619.678 370.619C620.244 370.873 620.713 371.231 621.084 371.693C621.462 372.149 621.742 372.693 621.924 373.324C622.113 373.956 622.207 374.652 622.207 375.414V376.42H614.043V374.73H619.883V374.545C619.87 374.122 619.785 373.725 619.629 373.354C619.479 372.982 619.248 372.683 618.936 372.455C618.623 372.227 618.206 372.113 617.686 372.113C617.295 372.113 616.947 372.198 616.641 372.367C616.341 372.53 616.09 372.768 615.889 373.08C615.687 373.393 615.531 373.77 615.42 374.213C615.316 374.649 615.264 375.141 615.264 375.688V376.078C615.264 376.54 615.326 376.97 615.449 377.367C615.579 377.758 615.768 378.1 616.016 378.393C616.263 378.686 616.562 378.917 616.914 379.086C617.266 379.249 617.666 379.33 618.115 379.33C618.682 379.33 619.186 379.216 619.629 378.988C620.072 378.76 620.456 378.438 620.781 378.021L622.021 379.223C621.794 379.555 621.497 379.874 621.133 380.18C620.768 380.479 620.322 380.723 619.795 380.912C619.274 381.101 618.669 381.195 617.979 381.195ZM626.406 372.465V385.062H624.053V370.434H626.221L626.406 372.465ZM633.291 375.619V375.824C633.291 376.592 633.2 377.305 633.018 377.963C632.842 378.614 632.578 379.184 632.227 379.672C631.882 380.154 631.455 380.528 630.947 380.795C630.439 381.062 629.854 381.195 629.189 381.195C628.532 381.195 627.956 381.075 627.461 380.834C626.973 380.587 626.559 380.238 626.221 379.789C625.882 379.34 625.609 378.812 625.4 378.207C625.199 377.595 625.055 376.924 624.971 376.195V375.404C625.055 374.63 625.199 373.926 625.4 373.295C625.609 372.663 625.882 372.12 626.221 371.664C626.559 371.208 626.973 370.857 627.461 370.609C627.949 370.362 628.519 370.238 629.17 370.238C629.834 370.238 630.423 370.368 630.938 370.629C631.452 370.883 631.885 371.247 632.236 371.723C632.588 372.191 632.852 372.758 633.027 373.422C633.203 374.079 633.291 374.812 633.291 375.619ZM630.938 375.824V375.619C630.938 375.131 630.892 374.678 630.801 374.262C630.71 373.839 630.566 373.467 630.371 373.148C630.176 372.829 629.925 372.582 629.619 372.406C629.32 372.224 628.958 372.133 628.535 372.133C628.118 372.133 627.76 372.204 627.461 372.348C627.161 372.484 626.911 372.676 626.709 372.924C626.507 373.171 626.351 373.461 626.24 373.793C626.13 374.118 626.051 374.473 626.006 374.857V376.752C626.084 377.221 626.217 377.65 626.406 378.041C626.595 378.432 626.862 378.744 627.207 378.979C627.559 379.206 628.008 379.32 628.555 379.32C628.978 379.32 629.339 379.229 629.639 379.047C629.938 378.865 630.182 378.614 630.371 378.295C630.566 377.969 630.71 377.595 630.801 377.172C630.892 376.749 630.938 376.299 630.938 375.824Z" fill="#A7A7A7"/>
<path d="M689.783 373.5V374.281C689.783 375.355 689.643 376.319 689.363 377.172C689.083 378.025 688.683 378.751 688.162 379.35C687.648 379.949 687.029 380.408 686.307 380.727C685.584 381.039 684.783 381.195 683.904 381.195C683.032 381.195 682.234 381.039 681.512 380.727C680.796 380.408 680.174 379.949 679.646 379.35C679.119 378.751 678.709 378.025 678.416 377.172C678.13 376.319 677.986 375.355 677.986 374.281V373.5C677.986 372.426 678.13 371.465 678.416 370.619C678.702 369.766 679.106 369.04 679.627 368.441C680.154 367.836 680.776 367.377 681.492 367.064C682.215 366.745 683.012 366.586 683.885 366.586C684.764 366.586 685.564 366.745 686.287 367.064C687.01 367.377 687.632 367.836 688.152 368.441C688.673 369.04 689.074 369.766 689.354 370.619C689.64 371.465 689.783 372.426 689.783 373.5ZM687.332 374.281V373.48C687.332 372.686 687.254 371.986 687.098 371.381C686.948 370.769 686.723 370.258 686.424 369.848C686.131 369.431 685.77 369.118 685.34 368.91C684.91 368.695 684.425 368.588 683.885 368.588C683.344 368.588 682.863 368.695 682.439 368.91C682.016 369.118 681.655 369.431 681.355 369.848C681.062 370.258 680.838 370.769 680.682 371.381C680.525 371.986 680.447 372.686 680.447 373.48V374.281C680.447 375.076 680.525 375.779 680.682 376.391C680.838 377.003 681.066 377.52 681.365 377.943C681.671 378.36 682.036 378.676 682.459 378.891C682.882 379.099 683.364 379.203 683.904 379.203C684.451 379.203 684.936 379.099 685.359 378.891C685.783 378.676 686.141 378.36 686.434 377.943C686.727 377.52 686.948 377.003 687.098 376.391C687.254 375.779 687.332 375.076 687.332 374.281ZM696.316 379.32C696.701 379.32 697.046 379.245 697.352 379.096C697.664 378.939 697.915 378.725 698.104 378.451C698.299 378.178 698.406 377.862 698.426 377.504H700.643C700.63 378.188 700.428 378.809 700.037 379.369C699.646 379.929 699.129 380.375 698.484 380.707C697.84 381.033 697.127 381.195 696.346 381.195C695.538 381.195 694.835 381.059 694.236 380.785C693.637 380.505 693.139 380.121 692.742 379.633C692.345 379.145 692.046 378.581 691.844 377.943C691.648 377.305 691.551 376.622 691.551 375.893V375.551C691.551 374.822 691.648 374.138 691.844 373.5C692.046 372.855 692.345 372.289 692.742 371.801C693.139 371.312 693.637 370.932 694.236 370.658C694.835 370.378 695.535 370.238 696.336 370.238C697.182 370.238 697.924 370.408 698.562 370.746C699.201 371.078 699.702 371.544 700.066 372.143C700.438 372.735 700.63 373.425 700.643 374.213H698.426C698.406 373.822 698.309 373.471 698.133 373.158C697.964 372.839 697.723 372.585 697.41 372.396C697.104 372.208 696.736 372.113 696.307 372.113C695.831 372.113 695.438 372.211 695.125 372.406C694.812 372.595 694.568 372.855 694.393 373.188C694.217 373.513 694.09 373.881 694.012 374.291C693.94 374.695 693.904 375.115 693.904 375.551V375.893C693.904 376.329 693.94 376.752 694.012 377.162C694.083 377.572 694.207 377.94 694.383 378.266C694.565 378.585 694.812 378.842 695.125 379.037C695.438 379.226 695.835 379.32 696.316 379.32ZM707.293 370.434V372.152H701.336V370.434H707.293ZM703.055 367.846H705.408V378.08C705.408 378.406 705.454 378.656 705.545 378.832C705.643 379.001 705.776 379.115 705.945 379.174C706.115 379.232 706.313 379.262 706.541 379.262C706.704 379.262 706.86 379.252 707.01 379.232C707.16 379.213 707.28 379.193 707.371 379.174L707.381 380.971C707.186 381.029 706.958 381.081 706.697 381.127C706.443 381.173 706.15 381.195 705.818 381.195C705.278 381.195 704.799 381.101 704.383 380.912C703.966 380.717 703.641 380.401 703.406 379.965C703.172 379.529 703.055 378.949 703.055 378.227V367.846Z" fill="#A7A7A7"/>
<path d="M762.725 366.781V381H760.273L753.896 370.814V381H751.445V366.781H753.896L760.293 376.986V366.781H762.725ZM764.961 375.834V375.609C764.961 374.848 765.072 374.141 765.293 373.49C765.514 372.833 765.833 372.263 766.25 371.781C766.673 371.293 767.188 370.915 767.793 370.648C768.405 370.375 769.095 370.238 769.863 370.238C770.638 370.238 771.328 370.375 771.934 370.648C772.546 370.915 773.063 371.293 773.486 371.781C773.91 372.263 774.232 372.833 774.453 373.49C774.674 374.141 774.785 374.848 774.785 375.609V375.834C774.785 376.596 774.674 377.302 774.453 377.953C774.232 378.604 773.91 379.174 773.486 379.662C773.063 380.144 772.549 380.521 771.943 380.795C771.338 381.062 770.651 381.195 769.883 381.195C769.108 381.195 768.415 381.062 767.803 380.795C767.197 380.521 766.683 380.144 766.26 379.662C765.837 379.174 765.514 378.604 765.293 377.953C765.072 377.302 764.961 376.596 764.961 375.834ZM767.314 375.609V375.834C767.314 376.309 767.363 376.758 767.461 377.182C767.559 377.605 767.712 377.976 767.92 378.295C768.128 378.614 768.395 378.865 768.721 379.047C769.046 379.229 769.434 379.32 769.883 379.32C770.319 379.32 770.697 379.229 771.016 379.047C771.341 378.865 771.608 378.614 771.816 378.295C772.025 377.976 772.178 377.605 772.275 377.182C772.38 376.758 772.432 376.309 772.432 375.834V375.609C772.432 375.141 772.38 374.698 772.275 374.281C772.178 373.858 772.021 373.484 771.807 373.158C771.598 372.833 771.331 372.579 771.006 372.396C770.687 372.208 770.306 372.113 769.863 372.113C769.421 372.113 769.036 372.208 768.711 372.396C768.392 372.579 768.128 372.833 767.92 373.158C767.712 373.484 767.559 373.858 767.461 374.281C767.363 374.698 767.314 375.141 767.314 375.609ZM780.039 379.135L782.627 370.434H785.068L781.396 381H779.873L780.039 379.135ZM778.057 370.434L780.693 379.174L780.82 381H779.297L775.605 370.434H778.057Z" fill="#A7A7A7"/>
<path d="M830.576 381H827.539L827.559 379.057H830.576C831.455 379.057 832.191 378.865 832.783 378.48C833.382 378.096 833.831 377.546 834.131 376.83C834.437 376.114 834.59 375.261 834.59 374.271V373.5C834.59 372.732 834.502 372.051 834.326 371.459C834.157 370.867 833.903 370.368 833.564 369.965C833.232 369.561 832.822 369.255 832.334 369.047C831.852 368.839 831.296 368.734 830.664 368.734H827.48V366.781H830.664C831.608 366.781 832.471 366.941 833.252 367.26C834.033 367.572 834.707 368.025 835.273 368.617C835.846 369.21 836.286 369.919 836.592 370.746C836.898 371.573 837.051 372.497 837.051 373.52V374.271C837.051 375.294 836.898 376.218 836.592 377.045C836.286 377.872 835.846 378.581 835.273 379.174C834.701 379.76 834.017 380.212 833.223 380.531C832.435 380.844 831.553 381 830.576 381ZM828.896 366.781V381H826.445V366.781H828.896ZM843.936 381.195C843.154 381.195 842.448 381.068 841.816 380.814C841.191 380.554 840.658 380.193 840.215 379.73C839.779 379.268 839.443 378.725 839.209 378.1C838.975 377.475 838.857 376.801 838.857 376.078V375.688C838.857 374.861 838.978 374.112 839.219 373.441C839.46 372.771 839.795 372.198 840.225 371.723C840.654 371.241 841.162 370.873 841.748 370.619C842.334 370.365 842.969 370.238 843.652 370.238C844.408 370.238 845.068 370.365 845.635 370.619C846.201 370.873 846.67 371.231 847.041 371.693C847.419 372.149 847.699 372.693 847.881 373.324C848.07 373.956 848.164 374.652 848.164 375.414V376.42H840V374.73H845.84V374.545C845.827 374.122 845.742 373.725 845.586 373.354C845.436 372.982 845.205 372.683 844.893 372.455C844.58 372.227 844.163 372.113 843.643 372.113C843.252 372.113 842.904 372.198 842.598 372.367C842.298 372.53 842.048 372.768 841.846 373.08C841.644 373.393 841.488 373.77 841.377 374.213C841.273 374.649 841.221 375.141 841.221 375.688V376.078C841.221 376.54 841.283 376.97 841.406 377.367C841.536 377.758 841.725 378.1 841.973 378.393C842.22 378.686 842.52 378.917 842.871 379.086C843.223 379.249 843.623 379.33 844.072 379.33C844.639 379.33 845.143 379.216 845.586 378.988C846.029 378.76 846.413 378.438 846.738 378.021L847.979 379.223C847.751 379.555 847.454 379.874 847.09 380.18C846.725 380.479 846.279 380.723 845.752 380.912C845.231 381.101 844.626 381.195 843.936 381.195ZM854.316 379.32C854.701 379.32 855.046 379.245 855.352 379.096C855.664 378.939 855.915 378.725 856.104 378.451C856.299 378.178 856.406 377.862 856.426 377.504H858.643C858.63 378.188 858.428 378.809 858.037 379.369C857.646 379.929 857.129 380.375 856.484 380.707C855.84 381.033 855.127 381.195 854.346 381.195C853.538 381.195 852.835 381.059 852.236 380.785C851.637 380.505 851.139 380.121 850.742 379.633C850.345 379.145 850.046 378.581 849.844 377.943C849.648 377.305 849.551 376.622 849.551 375.893V375.551C849.551 374.822 849.648 374.138 849.844 373.5C850.046 372.855 850.345 372.289 850.742 371.801C851.139 371.312 851.637 370.932 852.236 370.658C852.835 370.378 853.535 370.238 854.336 370.238C855.182 370.238 855.924 370.408 856.562 370.746C857.201 371.078 857.702 371.544 858.066 372.143C858.438 372.735 858.63 373.425 858.643 374.213H856.426C856.406 373.822 856.309 373.471 856.133 373.158C855.964 372.839 855.723 372.585 855.41 372.396C855.104 372.208 854.736 372.113 854.307 372.113C853.831 372.113 853.438 372.211 853.125 372.406C852.812 372.595 852.568 372.855 852.393 373.188C852.217 373.513 852.09 373.881 852.012 374.291C851.94 374.695 851.904 375.115 851.904 375.551V375.893C851.904 376.329 851.94 376.752 852.012 377.162C852.083 377.572 852.207 377.94 852.383 378.266C852.565 378.585 852.812 378.842 853.125 379.037C853.438 379.226 853.835 379.32 854.316 379.32Z" fill="#A7A7A7"/>
</svg>
