<svg width="316" height="27" viewBox="0 0 316 27" fill="none" xmlns="http://www.w3.org/2000/svg">
<rect width="315" height="8" rx="4" fill="#EEEEEE"/>
<rect width="103" height="8" rx="4" fill="#5F27CD"/>
<path d="M291.693 18.2236H292.712C293.072 18.2236 293.368 18.1621 293.601 18.0391C293.838 17.9115 294.013 17.7383 294.127 17.5195C294.245 17.2962 294.305 17.0387 294.305 16.7471C294.305 16.46 294.252 16.2116 294.147 16.002C294.043 15.7878 293.883 15.6237 293.669 15.5098C293.459 15.3913 293.19 15.332 292.862 15.332C292.598 15.332 292.354 15.3844 292.131 15.4893C291.912 15.5941 291.737 15.7445 291.604 15.9404C291.477 16.1318 291.413 16.362 291.413 16.6309H289.602C289.602 16.0931 289.743 15.6214 290.025 15.2158C290.312 14.8057 290.7 14.4844 291.188 14.252C291.675 14.0195 292.22 13.9033 292.821 13.9033C293.478 13.9033 294.052 14.0127 294.544 14.2314C295.041 14.4456 295.426 14.7624 295.699 15.1816C295.977 15.6009 296.116 16.1204 296.116 16.7402C296.116 17.0365 296.046 17.3327 295.904 17.6289C295.768 17.9206 295.565 18.1849 295.296 18.4219C295.032 18.6543 294.706 18.8434 294.318 18.9893C293.936 19.1305 293.496 19.2012 292.999 19.2012H291.693V18.2236ZM291.693 19.6182V18.6543H292.999C293.56 18.6543 294.045 18.7204 294.455 18.8525C294.87 18.9801 295.212 19.1624 295.48 19.3994C295.749 19.6318 295.948 19.903 296.075 20.2129C296.207 20.5228 296.273 20.8555 296.273 21.2109C296.273 21.6758 296.187 22.0905 296.014 22.4551C295.84 22.8151 295.597 23.1204 295.282 23.3711C294.972 23.6217 294.608 23.8132 294.188 23.9453C293.769 24.0729 293.316 24.1367 292.828 24.1367C292.404 24.1367 291.992 24.0798 291.591 23.9658C291.194 23.8473 290.837 23.6719 290.518 23.4395C290.199 23.2025 289.946 22.9062 289.759 22.5508C289.572 22.1908 289.479 21.7738 289.479 21.2998H291.29C291.29 21.5732 291.356 21.8171 291.488 22.0312C291.625 22.2454 291.812 22.4141 292.049 22.5371C292.29 22.6556 292.562 22.7148 292.862 22.7148C293.195 22.7148 293.48 22.6556 293.717 22.5371C293.958 22.4141 294.143 22.2409 294.271 22.0176C294.398 21.7897 294.462 21.5186 294.462 21.2041C294.462 20.8304 294.391 20.5273 294.25 20.2949C294.109 20.0625 293.906 19.8916 293.642 19.7822C293.382 19.6729 293.072 19.6182 292.712 19.6182H291.693ZM304.319 21.2793C304.319 21.8991 304.174 22.4232 303.882 22.8516C303.595 23.2754 303.201 23.5967 302.699 23.8154C302.202 24.0296 301.637 24.1367 301.004 24.1367C300.375 24.1367 299.808 24.0296 299.302 23.8154C298.8 23.5967 298.402 23.2754 298.105 22.8516C297.814 22.4232 297.668 21.8991 297.668 21.2793C297.668 20.8646 297.75 20.4886 297.914 20.1514C298.083 19.8141 298.315 19.5247 298.611 19.2832C298.908 19.0371 299.258 18.8503 299.664 18.7227C300.07 18.5905 300.512 18.5244 300.99 18.5244C301.628 18.5244 302.198 18.6406 302.699 18.873C303.205 19.1009 303.602 19.4222 303.889 19.8369C304.176 20.2471 304.319 20.7279 304.319 21.2793ZM302.501 21.1699C302.501 20.8509 302.437 20.5752 302.31 20.3428C302.187 20.1058 302.011 19.9235 301.783 19.7959C301.555 19.6683 301.291 19.6045 300.99 19.6045C300.685 19.6045 300.418 19.6683 300.19 19.7959C299.967 19.9235 299.792 20.1058 299.664 20.3428C299.541 20.5752 299.479 20.8509 299.479 21.1699C299.479 21.4935 299.541 21.7715 299.664 22.0039C299.792 22.2318 299.969 22.4072 300.197 22.5303C300.425 22.6533 300.694 22.7148 301.004 22.7148C301.314 22.7148 301.58 22.6533 301.804 22.5303C302.027 22.4072 302.198 22.2318 302.316 22.0039C302.439 21.7715 302.501 21.4935 302.501 21.1699ZM304.101 16.6719C304.101 17.1732 303.968 17.6198 303.704 18.0117C303.44 18.3991 303.073 18.7021 302.604 18.9209C302.139 19.1396 301.605 19.249 301.004 19.249C300.402 19.249 299.865 19.1396 299.391 18.9209C298.921 18.7021 298.552 18.3991 298.283 18.0117C298.019 17.6198 297.887 17.1732 297.887 16.6719C297.887 16.0794 298.021 15.5781 298.29 15.168C298.559 14.7533 298.926 14.4388 299.391 14.2246C299.86 14.0104 300.393 13.9033 300.99 13.9033C301.596 13.9033 302.134 14.0104 302.604 14.2246C303.073 14.4388 303.44 14.7533 303.704 15.168C303.968 15.5781 304.101 16.0794 304.101 16.6719ZM302.296 16.7471C302.296 16.4645 302.243 16.2184 302.139 16.0088C302.034 15.7946 301.883 15.6283 301.688 15.5098C301.496 15.3913 301.264 15.332 300.99 15.332C300.726 15.332 300.498 15.389 300.307 15.5029C300.115 15.6169 299.967 15.7809 299.862 15.9951C299.757 16.2048 299.705 16.4554 299.705 16.7471C299.705 17.0342 299.757 17.2848 299.862 17.499C299.967 17.7132 300.115 17.8818 300.307 18.0049C300.503 18.1234 300.735 18.1826 301.004 18.1826C301.273 18.1826 301.503 18.1234 301.694 18.0049C301.886 17.8818 302.034 17.7132 302.139 17.499C302.243 17.2848 302.296 17.0342 302.296 16.7471ZM305.666 16.4873V15.9609C305.666 15.5827 305.748 15.2386 305.912 14.9287C306.076 14.6188 306.315 14.3704 306.63 14.1836C306.949 13.9967 307.336 13.9033 307.792 13.9033C308.257 13.9033 308.646 13.9967 308.961 14.1836C309.28 14.3704 309.519 14.6188 309.679 14.9287C309.843 15.2386 309.925 15.5827 309.925 15.9609V16.4873C309.925 16.8564 309.843 17.196 309.679 17.5059C309.519 17.8158 309.282 18.0641 308.968 18.251C308.653 18.4378 308.266 18.5312 307.806 18.5312C307.345 18.5312 306.956 18.4378 306.637 18.251C306.318 18.0641 306.076 17.8158 305.912 17.5059C305.748 17.196 305.666 16.8564 305.666 16.4873ZM306.89 15.9609V16.4873C306.89 16.6605 306.922 16.8245 306.985 16.9795C307.054 17.1299 307.156 17.2529 307.293 17.3486C307.43 17.4443 307.601 17.4922 307.806 17.4922C308.011 17.4922 308.177 17.4443 308.305 17.3486C308.437 17.2529 308.535 17.1299 308.599 16.9795C308.667 16.8245 308.701 16.6605 308.701 16.4873V15.9609C308.701 15.7832 308.667 15.6169 308.599 15.4619C308.535 15.307 308.435 15.1816 308.298 15.0859C308.166 14.9902 307.997 14.9424 307.792 14.9424C307.591 14.9424 307.423 14.9902 307.286 15.0859C307.154 15.1816 307.054 15.307 306.985 15.4619C306.922 15.6169 306.89 15.7832 306.89 15.9609ZM310.444 22.0859V21.5596C310.444 21.1859 310.526 20.8441 310.69 20.5342C310.859 20.2243 311.103 19.9759 311.422 19.7891C311.741 19.6022 312.126 19.5088 312.577 19.5088C313.047 19.5088 313.438 19.6022 313.753 19.7891C314.067 19.9759 314.304 20.2243 314.464 20.5342C314.628 20.8441 314.71 21.1859 314.71 21.5596V22.0859C314.71 22.4596 314.628 22.8014 314.464 23.1113C314.304 23.4212 314.067 23.6696 313.753 23.8564C313.443 24.0433 313.058 24.1367 312.598 24.1367C312.137 24.1367 311.745 24.0433 311.422 23.8564C311.103 23.6696 310.859 23.4212 310.69 23.1113C310.526 22.8014 310.444 22.4596 310.444 22.0859ZM311.675 21.5596V22.0859C311.675 22.2637 311.711 22.43 311.784 22.585C311.857 22.7354 311.962 22.8584 312.099 22.9541C312.24 23.0498 312.404 23.0977 312.591 23.0977C312.819 23.0977 312.999 23.0498 313.131 22.9541C313.263 22.8584 313.356 22.7354 313.411 22.585C313.466 22.43 313.493 22.2637 313.493 22.0859V21.5596C313.493 21.3818 313.459 21.2178 313.391 21.0674C313.322 20.9124 313.22 20.7871 313.083 20.6914C312.951 20.5957 312.782 20.5479 312.577 20.5479C312.377 20.5479 312.208 20.5957 312.071 20.6914C311.939 20.7871 311.839 20.9124 311.771 21.0674C311.707 21.2178 311.675 21.3818 311.675 21.5596ZM313.028 15.4688L308.168 23.248L307.272 22.749L312.133 14.9697L313.028 15.4688Z" fill="#535353"/>
</svg>
