<svg width="130" height="130" viewBox="0 0 130 130" fill="none" xmlns="http://www.w3.org/2000/svg">
<path d="M42.3438 73.1504H42.6777C44.084 73.1504 45.291 72.9805 46.2988 72.6406C47.3184 72.2891 48.1562 71.7852 48.8125 71.1289C49.4688 70.4727 49.9551 69.6699 50.2715 68.7207C50.5879 67.7598 50.7461 66.6699 50.7461 65.4512V60.5996C50.7461 59.6738 50.6523 58.8594 50.4648 58.1562C50.2891 57.4531 50.0312 56.873 49.6914 56.416C49.3633 55.9473 48.9766 55.5957 48.5312 55.3613C48.0977 55.127 47.6172 55.0098 47.0898 55.0098C46.5273 55.0098 46.0293 55.1504 45.5957 55.4316C45.1621 55.7012 44.793 56.0703 44.4883 56.5391C44.1953 57.0078 43.9668 57.5469 43.8027 58.1562C43.6504 58.7539 43.5742 59.3809 43.5742 60.0371C43.5742 60.6934 43.6504 61.3203 43.8027 61.918C43.9551 62.5039 44.1836 63.0254 44.4883 63.4824C44.793 63.9277 45.1738 64.2852 45.6309 64.5547C46.0879 64.8125 46.627 64.9414 47.248 64.9414C47.8457 64.9414 48.3789 64.8301 48.8477 64.6074C49.3281 64.373 49.7324 64.0684 50.0605 63.6934C50.4004 63.3184 50.6582 62.9023 50.834 62.4453C51.0215 61.9883 51.1152 61.5254 51.1152 61.0566L52.7852 61.9707C52.7852 62.791 52.6094 63.5996 52.2578 64.3965C51.9062 65.1934 51.4141 65.9199 50.7812 66.5762C50.1602 67.2207 49.4395 67.7363 48.6191 68.123C47.7988 68.5098 46.9199 68.7031 45.9824 68.7031C44.7871 68.7031 43.7266 68.4863 42.8008 68.0527C41.875 67.6074 41.0898 66.998 40.4453 66.2246C39.8125 65.4395 39.332 64.5254 39.0039 63.4824C38.6758 62.4395 38.5117 61.3086 38.5117 60.0898C38.5117 58.8477 38.7109 57.6816 39.1094 56.5918C39.5195 55.502 40.0996 54.541 40.8496 53.709C41.6113 52.877 42.5195 52.2266 43.5742 51.7578C44.6406 51.2773 45.8242 51.0371 47.125 51.0371C48.4258 51.0371 49.6094 51.2891 50.6758 51.793C51.7422 52.2969 52.6562 53.0117 53.418 53.9375C54.1797 54.8516 54.7656 55.9473 55.1758 57.2246C55.5977 58.502 55.8086 59.9199 55.8086 61.4785V63.2363C55.8086 64.9004 55.627 66.4473 55.2637 67.877C54.9121 69.3066 54.3789 70.6016 53.6641 71.7617C52.9609 72.9102 52.082 73.8945 51.0273 74.7148C49.9844 75.5352 48.7715 76.1621 47.3887 76.5957C46.0059 77.0293 44.459 77.2461 42.748 77.2461H42.3438V73.1504ZM76.6562 61.9531V66.3828C76.6562 68.3047 76.4512 69.9629 76.041 71.3574C75.6309 72.7402 75.0391 73.877 74.2656 74.7676C73.5039 75.6465 72.5957 76.2969 71.541 76.7188C70.4863 77.1406 69.3145 77.3516 68.0254 77.3516C66.9941 77.3516 66.0332 77.2227 65.1426 76.9648C64.252 76.6953 63.4492 76.2793 62.7344 75.7168C62.0312 75.1543 61.4219 74.4453 60.9062 73.5898C60.4023 72.7227 60.0156 71.6914 59.7461 70.4961C59.4766 69.3008 59.3418 67.9297 59.3418 66.3828V61.9531C59.3418 60.0312 59.5469 58.3848 59.957 57.0137C60.3789 55.6309 60.9707 54.5 61.7324 53.6211C62.5059 52.7422 63.4199 52.0977 64.4746 51.6875C65.5293 51.2656 66.7012 51.0547 67.9902 51.0547C69.0215 51.0547 69.9766 51.1895 70.8555 51.459C71.7461 51.7168 72.5488 52.1211 73.2637 52.6719C73.9785 53.2227 74.5879 53.9316 75.0918 54.7988C75.5957 55.6543 75.9824 56.6797 76.252 57.875C76.5215 59.0586 76.6562 60.418 76.6562 61.9531ZM71.5762 67.0508V61.2676C71.5762 60.3418 71.5234 59.5332 71.418 58.8418C71.3242 58.1504 71.1777 57.5645 70.9785 57.084C70.7793 56.5918 70.5332 56.1934 70.2402 55.8887C69.9473 55.584 69.6133 55.3613 69.2383 55.2207C68.8633 55.0801 68.4473 55.0098 67.9902 55.0098C67.416 55.0098 66.9062 55.1211 66.4609 55.3438C66.0273 55.5664 65.6582 55.9238 65.3535 56.416C65.0488 56.8965 64.8145 57.541 64.6504 58.3496C64.498 59.1465 64.4219 60.1191 64.4219 61.2676V67.0508C64.4219 67.9766 64.4688 68.791 64.5625 69.4941C64.668 70.1973 64.8203 70.8008 65.0195 71.3047C65.2305 71.7969 65.4766 72.2012 65.7578 72.5176C66.0508 72.8223 66.3848 73.0449 66.7598 73.1855C67.1465 73.3262 67.5684 73.3965 68.0254 73.3965C68.5879 73.3965 69.0859 73.2852 69.5195 73.0625C69.9648 72.8281 70.3398 72.4648 70.6445 71.9727C70.9609 71.4688 71.1953 70.8125 71.3477 70.0039C71.5 69.1953 71.5762 68.2109 71.5762 67.0508Z" fill="#FF8918"/>
<circle cx="65" cy="65" r="60" stroke="#E2E2E2" stroke-width="10"/>
<mask id="path-3-inside-1_152_22" fill="white">
<path d="M130 64.5C130 79.4224 124.826 93.8832 115.359 105.418C105.892 116.954 92.719 124.849 78.0833 127.761C63.4476 130.672 48.2553 128.418 35.0949 121.384C21.9345 114.35 11.6203 102.97 5.90977 89.1831C0.19921 75.3966 -0.554401 60.0565 3.77735 45.7766C8.10909 31.4968 17.2582 19.1607 29.6657 10.8702C42.0732 2.57976 56.9715 -1.15207 71.8221 0.310584C86.6727 1.77323 100.557 8.33987 111.108 18.8916L103.013 26.9873C94.3339 18.3086 82.9144 12.9075 70.6999 11.7045C58.4854 10.5015 46.2316 13.5709 36.0265 20.3898C25.8213 27.2086 18.2963 37.355 14.7334 49.1001C11.1706 60.8452 11.7904 73.4624 16.4873 84.8017C21.1842 96.1411 29.6676 105.501 40.492 111.287C51.3163 117.072 63.8119 118.926 75.8497 116.532C87.8875 114.137 98.7226 107.643 106.509 98.1552C114.295 88.6675 118.551 76.7736 118.551 64.5H130Z"/>
</mask>
<path d="M130 64.5C130 79.4224 124.826 93.8832 115.359 105.418C105.892 116.954 92.719 124.849 78.0833 127.761C63.4476 130.672 48.2553 128.418 35.0949 121.384C21.9345 114.35 11.6203 102.97 5.90977 89.1831C0.19921 75.3966 -0.554401 60.0565 3.77735 45.7766C8.10909 31.4968 17.2582 19.1607 29.6657 10.8702C42.0732 2.57976 56.9715 -1.15207 71.8221 0.310584C86.6727 1.77323 100.557 8.33987 111.108 18.8916L103.013 26.9873C94.3339 18.3086 82.9144 12.9075 70.6999 11.7045C58.4854 10.5015 46.2316 13.5709 36.0265 20.3898C25.8213 27.2086 18.2963 37.355 14.7334 49.1001C11.1706 60.8452 11.7904 73.4624 16.4873 84.8017C21.1842 96.1411 29.6676 105.501 40.492 111.287C51.3163 117.072 63.8119 118.926 75.8497 116.532C87.8875 114.137 98.7226 107.643 106.509 98.1552C114.295 88.6675 118.551 76.7736 118.551 64.5H130Z" stroke="#FF8918" stroke-width="30" mask="url(#path-3-inside-1_152_22)"/>
<path d="M79.8438 60.3408V59.6641C79.8438 59.1777 79.9492 58.7354 80.1602 58.3369C80.3711 57.9385 80.6816 57.6191 81.0918 57.3789C81.502 57.1387 82.0059 57.0186 82.6035 57.0186C83.2188 57.0186 83.7314 57.1387 84.1416 57.3789C84.5576 57.6191 84.8682 57.9385 85.0732 58.3369C85.2842 58.7354 85.3896 59.1777 85.3896 59.6641V60.3408C85.3896 60.8154 85.2842 61.252 85.0732 61.6504C84.8682 62.0488 84.5605 62.3682 84.1504 62.6084C83.7402 62.8486 83.2334 62.9688 82.6299 62.9688C82.0205 62.9688 81.5078 62.8486 81.0918 62.6084C80.6816 62.3682 80.3711 62.0488 80.1602 61.6504C79.9492 61.252 79.8438 60.8154 79.8438 60.3408ZM81.5225 59.6641V60.3408C81.5225 60.5459 81.5605 60.7422 81.6367 60.9297C81.7188 61.1113 81.8418 61.2607 82.0059 61.3779C82.1758 61.4893 82.3809 61.5449 82.6211 61.5449C82.873 61.5449 83.0781 61.4893 83.2363 61.3779C83.3945 61.2607 83.5117 61.1113 83.5879 60.9297C83.6641 60.7422 83.7021 60.5459 83.7021 60.3408V59.6641C83.7021 59.4473 83.6611 59.248 83.5791 59.0664C83.5029 58.8789 83.3828 58.7295 83.2188 58.6182C83.0605 58.501 82.8555 58.4424 82.6035 58.4424C82.3691 58.4424 82.1699 58.501 82.0059 58.6182C81.8418 58.7295 81.7188 58.8789 81.6367 59.0664C81.5605 59.248 81.5225 59.4473 81.5225 59.6641ZM85.9609 67.5391V66.8623C85.9609 66.3818 86.0664 65.9424 86.2773 65.5439C86.4941 65.1455 86.8076 64.8262 87.2178 64.5859C87.6338 64.3457 88.1436 64.2256 88.7471 64.2256C89.3564 64.2256 89.8662 64.3457 90.2764 64.5859C90.6865 64.8262 90.9971 65.1455 91.208 65.5439C91.4189 65.9424 91.5244 66.3818 91.5244 66.8623V67.5391C91.5244 68.0195 91.4189 68.459 91.208 68.8574C91.0029 69.2559 90.6953 69.5752 90.2852 69.8154C89.875 70.0557 89.3682 70.1758 88.7646 70.1758C88.1553 70.1758 87.6426 70.0557 87.2266 69.8154C86.8105 69.5752 86.4941 69.2559 86.2773 68.8574C86.0664 68.459 85.9609 68.0195 85.9609 67.5391ZM87.6484 66.8623V67.5391C87.6484 67.75 87.6953 67.9492 87.7891 68.1367C87.8828 68.3242 88.0117 68.4736 88.1758 68.585C88.3457 68.6963 88.542 68.752 88.7646 68.752C89.0459 68.752 89.2656 68.6963 89.4238 68.585C89.582 68.4736 89.6904 68.3242 89.749 68.1367C89.8135 67.9492 89.8457 67.75 89.8457 67.5391V66.8623C89.8457 66.6514 89.8047 66.4551 89.7227 66.2734C89.6406 66.0859 89.5176 65.9365 89.3535 65.8252C89.1953 65.708 88.9932 65.6494 88.7471 65.6494C88.501 65.6494 88.2959 65.708 88.1318 65.8252C87.9736 65.9365 87.8535 66.0859 87.7715 66.2734C87.6895 66.4551 87.6484 66.6514 87.6484 66.8623ZM89.3711 59.0312L83.1221 69.0332L81.8916 68.3828L88.1406 58.3809L89.3711 59.0312Z" fill="black"/>
</svg>
