<svg width="130" height="130" viewBox="0 0 130 130" fill="none" xmlns="http://www.w3.org/2000/svg">
<path d="M43.9434 62.0059H46.6504C47.5176 62.0059 48.2324 61.8594 48.7949 61.5664C49.3574 61.2617 49.7734 60.8398 50.043 60.3008C50.3242 59.75 50.4648 59.1113 50.4648 58.3848C50.4648 57.7285 50.3359 57.1484 50.0781 56.6445C49.832 56.1289 49.4512 55.7305 48.9355 55.4492C48.4199 55.1562 47.7695 55.0098 46.9844 55.0098C46.3633 55.0098 45.7891 55.1328 45.2617 55.3789C44.7344 55.625 44.3125 55.9707 43.9961 56.416C43.6797 56.8613 43.5215 57.4004 43.5215 58.0332H38.4414C38.4414 56.627 38.8164 55.4023 39.5664 54.3594C40.3281 53.3164 41.3477 52.502 42.625 51.916C43.9023 51.3301 45.3086 51.0371 46.8438 51.0371C48.5781 51.0371 50.0957 51.3184 51.3965 51.8809C52.6973 52.4316 53.7109 53.2461 54.4375 54.3242C55.1641 55.4023 55.5273 56.7383 55.5273 58.332C55.5273 59.1406 55.3398 59.9258 54.9648 60.6875C54.5898 61.4375 54.0508 62.1172 53.3477 62.7266C52.6562 63.3242 51.8125 63.8047 50.8164 64.168C49.8203 64.5195 48.7012 64.6953 47.459 64.6953H43.9434V62.0059ZM43.9434 65.8555V63.2363H47.459C48.8535 63.2363 50.0781 63.3945 51.1328 63.7109C52.1875 64.0273 53.0723 64.4844 53.7871 65.082C54.502 65.668 55.041 66.3652 55.4043 67.1738C55.7676 67.9707 55.9492 68.8555 55.9492 69.8281C55.9492 71.0234 55.7207 72.0898 55.2637 73.0273C54.8066 73.9531 54.1621 74.7383 53.3301 75.3828C52.5098 76.0273 51.5488 76.5195 50.4473 76.8594C49.3457 77.1875 48.1445 77.3516 46.8438 77.3516C45.7656 77.3516 44.7051 77.2051 43.6621 76.9121C42.6309 76.6074 41.6934 76.1562 40.8496 75.5586C40.0176 74.9492 39.3496 74.1875 38.8457 73.2734C38.3535 72.3477 38.1074 71.252 38.1074 69.9863H43.1875C43.1875 70.6426 43.3516 71.2285 43.6797 71.7441C44.0078 72.2598 44.459 72.6641 45.0332 72.957C45.6191 73.25 46.2695 73.3965 46.9844 73.3965C47.793 73.3965 48.4844 73.25 49.0586 72.957C49.6445 72.6523 50.0898 72.2305 50.3945 71.6914C50.7109 71.1406 50.8691 70.502 50.8691 69.7754C50.8691 68.8379 50.6992 68.0879 50.3594 67.5254C50.0195 66.9512 49.5332 66.5293 48.9004 66.2598C48.2676 65.9902 47.5176 65.8555 46.6504 65.8555H43.9434ZM76.6562 61.9531V66.3828C76.6562 68.3047 76.4512 69.9629 76.041 71.3574C75.6309 72.7402 75.0391 73.877 74.2656 74.7676C73.5039 75.6465 72.5957 76.2969 71.541 76.7188C70.4863 77.1406 69.3145 77.3516 68.0254 77.3516C66.9941 77.3516 66.0332 77.2227 65.1426 76.9648C64.252 76.6953 63.4492 76.2793 62.7344 75.7168C62.0312 75.1543 61.4219 74.4453 60.9062 73.5898C60.4023 72.7227 60.0156 71.6914 59.7461 70.4961C59.4766 69.3008 59.3418 67.9297 59.3418 66.3828V61.9531C59.3418 60.0312 59.5469 58.3848 59.957 57.0137C60.3789 55.6309 60.9707 54.5 61.7324 53.6211C62.5059 52.7422 63.4199 52.0977 64.4746 51.6875C65.5293 51.2656 66.7012 51.0547 67.9902 51.0547C69.0215 51.0547 69.9766 51.1895 70.8555 51.459C71.7461 51.7168 72.5488 52.1211 73.2637 52.6719C73.9785 53.2227 74.5879 53.9316 75.0918 54.7988C75.5957 55.6543 75.9824 56.6797 76.252 57.875C76.5215 59.0586 76.6562 60.418 76.6562 61.9531ZM71.5762 67.0508V61.2676C71.5762 60.3418 71.5234 59.5332 71.418 58.8418C71.3242 58.1504 71.1777 57.5645 70.9785 57.084C70.7793 56.5918 70.5332 56.1934 70.2402 55.8887C69.9473 55.584 69.6133 55.3613 69.2383 55.2207C68.8633 55.0801 68.4473 55.0098 67.9902 55.0098C67.416 55.0098 66.9062 55.1211 66.4609 55.3438C66.0273 55.5664 65.6582 55.9238 65.3535 56.416C65.0488 56.8965 64.8145 57.541 64.6504 58.3496C64.498 59.1465 64.4219 60.1191 64.4219 61.2676V67.0508C64.4219 67.9766 64.4688 68.791 64.5625 69.4941C64.668 70.1973 64.8203 70.8008 65.0195 71.3047C65.2305 71.7969 65.4766 72.2012 65.7578 72.5176C66.0508 72.8223 66.3848 73.0449 66.7598 73.1855C67.1465 73.3262 67.5684 73.3965 68.0254 73.3965C68.5879 73.3965 69.0859 73.2852 69.5195 73.0625C69.9648 72.8281 70.3398 72.4648 70.6445 71.9727C70.9609 71.4688 71.1953 70.8125 71.3477 70.0039C71.5 69.1953 71.5762 68.2109 71.5762 67.0508Z" fill="#FF6B6B"/>
<circle cx="65" cy="65" r="60" stroke="#E2E2E2" stroke-width="10"/>
<mask id="path-3-inside-1_152_23" fill="white">
<path d="M129 65.5C129 78.2569 125.217 90.7273 118.13 101.334C111.042 111.941 100.969 120.208 89.1831 125.09C77.3972 129.972 64.4285 131.249 51.9167 128.761C39.4049 126.272 27.9121 120.129 18.8916 111.108L25.8292 104.171C33.4776 111.819 43.2222 117.028 53.8308 119.138C64.4393 121.248 75.4354 120.165 85.4285 116.026C95.4215 111.887 103.963 104.877 109.972 95.8834C115.981 86.8899 119.189 76.3164 119.189 65.5H129Z"/>
</mask>
<path d="M129 65.5C129 78.2569 125.217 90.7273 118.13 101.334C111.042 111.941 100.969 120.208 89.1831 125.09C77.3972 129.972 64.4285 131.249 51.9167 128.761C39.4049 126.272 27.9121 120.129 18.8916 111.108L25.8292 104.171C33.4776 111.819 43.2222 117.028 53.8308 119.138C64.4393 121.248 75.4354 120.165 85.4285 116.026C95.4215 111.887 103.963 104.877 109.972 95.8834C115.981 86.8899 119.189 76.3164 119.189 65.5H129Z" stroke="#FF6B6B" stroke-width="30" mask="url(#path-3-inside-1_152_23)"/>
<path d="M79.8438 60.3408V59.6641C79.8438 59.1777 79.9492 58.7354 80.1602 58.3369C80.3711 57.9385 80.6816 57.6191 81.0918 57.3789C81.502 57.1387 82.0059 57.0186 82.6035 57.0186C83.2188 57.0186 83.7314 57.1387 84.1416 57.3789C84.5576 57.6191 84.8682 57.9385 85.0732 58.3369C85.2842 58.7354 85.3896 59.1777 85.3896 59.6641V60.3408C85.3896 60.8154 85.2842 61.252 85.0732 61.6504C84.8682 62.0488 84.5605 62.3682 84.1504 62.6084C83.7402 62.8486 83.2334 62.9688 82.6299 62.9688C82.0205 62.9688 81.5078 62.8486 81.0918 62.6084C80.6816 62.3682 80.3711 62.0488 80.1602 61.6504C79.9492 61.252 79.8438 60.8154 79.8438 60.3408ZM81.5225 59.6641V60.3408C81.5225 60.5459 81.5605 60.7422 81.6367 60.9297C81.7188 61.1113 81.8418 61.2607 82.0059 61.3779C82.1758 61.4893 82.3809 61.5449 82.6211 61.5449C82.873 61.5449 83.0781 61.4893 83.2363 61.3779C83.3945 61.2607 83.5117 61.1113 83.5879 60.9297C83.6641 60.7422 83.7021 60.5459 83.7021 60.3408V59.6641C83.7021 59.4473 83.6611 59.248 83.5791 59.0664C83.5029 58.8789 83.3828 58.7295 83.2188 58.6182C83.0605 58.501 82.8555 58.4424 82.6035 58.4424C82.3691 58.4424 82.1699 58.501 82.0059 58.6182C81.8418 58.7295 81.7188 58.8789 81.6367 59.0664C81.5605 59.248 81.5225 59.4473 81.5225 59.6641ZM85.9609 67.5391V66.8623C85.9609 66.3818 86.0664 65.9424 86.2773 65.5439C86.4941 65.1455 86.8076 64.8262 87.2178 64.5859C87.6338 64.3457 88.1436 64.2256 88.7471 64.2256C89.3564 64.2256 89.8662 64.3457 90.2764 64.5859C90.6865 64.8262 90.9971 65.1455 91.208 65.5439C91.4189 65.9424 91.5244 66.3818 91.5244 66.8623V67.5391C91.5244 68.0195 91.4189 68.459 91.208 68.8574C91.0029 69.2559 90.6953 69.5752 90.2852 69.8154C89.875 70.0557 89.3682 70.1758 88.7646 70.1758C88.1553 70.1758 87.6426 70.0557 87.2266 69.8154C86.8105 69.5752 86.4941 69.2559 86.2773 68.8574C86.0664 68.459 85.9609 68.0195 85.9609 67.5391ZM87.6484 66.8623V67.5391C87.6484 67.75 87.6953 67.9492 87.7891 68.1367C87.8828 68.3242 88.0117 68.4736 88.1758 68.585C88.3457 68.6963 88.542 68.752 88.7646 68.752C89.0459 68.752 89.2656 68.6963 89.4238 68.585C89.582 68.4736 89.6904 68.3242 89.749 68.1367C89.8135 67.9492 89.8457 67.75 89.8457 67.5391V66.8623C89.8457 66.6514 89.8047 66.4551 89.7227 66.2734C89.6406 66.0859 89.5176 65.9365 89.3535 65.8252C89.1953 65.708 88.9932 65.6494 88.7471 65.6494C88.501 65.6494 88.2959 65.708 88.1318 65.8252C87.9736 65.9365 87.8535 66.0859 87.7715 66.2734C87.6895 66.4551 87.6484 66.6514 87.6484 66.8623ZM89.3711 59.0312L83.1221 69.0332L81.8916 68.3828L88.1406 58.3809L89.3711 59.0312Z" fill="black"/>
</svg>
