<svg width="130" height="130" viewBox="0 0 130 130" fill="none" xmlns="http://www.w3.org/2000/svg">
<path d="M56.002 69.9863C56.002 71.5918 55.627 72.9453 54.877 74.0469C54.127 75.1367 53.0957 75.9629 51.7832 76.5254C50.4824 77.0762 49.0059 77.3516 47.3535 77.3516C45.7012 77.3516 44.2188 77.0762 42.9062 76.5254C41.5938 75.9629 40.5566 75.1367 39.7949 74.0469C39.0332 72.9453 38.6523 71.5918 38.6523 69.9863C38.6523 68.9082 38.8691 67.9355 39.3027 67.0684C39.7363 66.1895 40.3398 65.4395 41.1133 64.8184C41.8984 64.1855 42.8184 63.7051 43.873 63.377C44.9277 63.0371 46.0762 62.8672 47.3184 62.8672C48.9824 62.8672 50.4707 63.1602 51.7832 63.7461C53.0957 64.332 54.127 65.1582 54.877 66.2246C55.627 67.291 56.002 68.5449 56.002 69.9863ZM50.9043 69.6523C50.9043 68.8672 50.752 68.1934 50.4473 67.6309C50.1543 67.0566 49.7383 66.6172 49.1992 66.3125C48.6602 66.0078 48.0332 65.8555 47.3184 65.8555C46.6035 65.8555 45.9766 66.0078 45.4375 66.3125C44.8984 66.6172 44.4766 67.0566 44.1719 67.6309C43.8789 68.1934 43.7324 68.8672 43.7324 69.6523C43.7324 70.4258 43.8789 71.0938 44.1719 71.6562C44.4766 72.2188 44.8984 72.6523 45.4375 72.957C45.9883 73.25 46.627 73.3965 47.3535 73.3965C48.0801 73.3965 48.707 73.25 49.2344 72.957C49.7734 72.6523 50.1836 72.2188 50.4648 71.6562C50.7578 71.0938 50.9043 70.4258 50.9043 69.6523ZM55.457 58.1914C55.457 59.4922 55.1113 60.6465 54.4199 61.6543C53.7285 62.6504 52.7676 63.4297 51.5371 63.9922C50.3184 64.5547 48.9238 64.8359 47.3535 64.8359C45.7715 64.8359 44.3652 64.5547 43.1348 63.9922C41.9043 63.4297 40.9434 62.6504 40.252 61.6543C39.5605 60.6465 39.2148 59.4922 39.2148 58.1914C39.2148 56.6445 39.5605 55.3438 40.252 54.2891C40.9551 53.2227 41.916 52.4141 43.1348 51.8633C44.3652 51.3125 45.7598 51.0371 47.3184 51.0371C48.9004 51.0371 50.3008 51.3125 51.5195 51.8633C52.75 52.4141 53.7109 53.2227 54.4023 54.2891C55.1055 55.3438 55.457 56.6445 55.457 58.1914ZM50.3945 58.4199C50.3945 57.7285 50.2715 57.1309 50.0254 56.627C49.7793 56.1113 49.4277 55.7129 48.9707 55.4316C48.5254 55.1504 47.9746 55.0098 47.3184 55.0098C46.6855 55.0098 46.1406 55.1445 45.6836 55.4141C45.2383 55.6836 44.8926 56.0762 44.6465 56.5918C44.4121 57.0957 44.2949 57.7051 44.2949 58.4199C44.2949 59.1113 44.4121 59.7207 44.6465 60.248C44.8926 60.7637 45.2441 61.168 45.7012 61.4609C46.1582 61.7539 46.709 61.9004 47.3535 61.9004C47.998 61.9004 48.543 61.7539 48.9883 61.4609C49.4453 61.168 49.791 60.7637 50.0254 60.248C50.2715 59.7207 50.3945 59.1113 50.3945 58.4199ZM64.1934 65.3457L60.1504 64.3789L61.6094 51.4062H75.9883V55.502H65.7754L65.1426 61.1797C65.4824 60.9805 65.998 60.7695 66.6895 60.5469C67.3809 60.3125 68.1543 60.1953 69.0098 60.1953C70.252 60.1953 71.3535 60.3887 72.3145 60.7754C73.2754 61.1621 74.0898 61.7246 74.7578 62.4629C75.4375 63.2012 75.9531 64.1035 76.3047 65.1699C76.6562 66.2363 76.832 67.4434 76.832 68.791C76.832 69.9277 76.6562 71.0117 76.3047 72.043C75.9531 73.0625 75.4199 73.9766 74.7051 74.7852C73.9902 75.582 73.0938 76.209 72.0156 76.666C70.9375 77.123 69.6602 77.3516 68.1836 77.3516C67.082 77.3516 66.0156 77.1875 64.9844 76.8594C63.9648 76.5312 63.0449 76.0449 62.2246 75.4004C61.416 74.7559 60.7656 73.9766 60.2734 73.0625C59.793 72.1367 59.541 71.082 59.5176 69.8984H64.5449C64.6152 70.625 64.8027 71.252 65.1074 71.7793C65.4238 72.2949 65.8398 72.6934 66.3555 72.9746C66.8711 73.2559 67.4746 73.3965 68.166 73.3965C68.8105 73.3965 69.3613 73.2734 69.8184 73.0273C70.2754 72.7812 70.6445 72.4414 70.9258 72.0078C71.207 71.5625 71.4121 71.0469 71.541 70.4609C71.6816 69.8633 71.752 69.2188 71.752 68.5273C71.752 67.8359 71.6699 67.209 71.5059 66.6465C71.3418 66.084 71.0898 65.5977 70.75 65.1875C70.4102 64.7773 69.9766 64.4609 69.4492 64.2383C68.9336 64.0156 68.3301 63.9043 67.6387 63.9043C66.7012 63.9043 65.9746 64.0508 65.459 64.3438C64.9551 64.6367 64.5332 64.9707 64.1934 65.3457Z" fill="#5F27CD"/>
<circle cx="65" cy="65" r="60" stroke="#E2E2E2" stroke-width="10"/>
<mask id="path-3-inside-1_152_20" fill="white">
<path d="M129 65.5C129 78.5676 125.031 91.327 117.618 102.089C110.205 112.85 99.6985 121.106 87.4891 125.764C75.2797 130.422 61.9436 131.261 49.2467 128.17C36.5497 125.08 25.0909 118.206 16.3876 108.459C7.68423 98.7112 2.14689 86.55 0.508788 73.5855C-1.12931 60.621 1.2091 47.4647 7.21438 35.8587C13.2197 24.2527 22.6085 14.7445 34.1378 8.59319C45.667 2.44185 58.7927 -0.0624808 71.7769 1.4118L70.67 11.1605C59.6609 9.91043 48.5317 12.0338 38.7563 17.2495C28.9808 22.4651 21.0201 30.527 15.9283 40.3675C10.8365 50.2081 8.85377 61.3631 10.2427 72.3556C11.6316 83.348 16.3267 93.6593 23.7061 101.924C31.0856 110.189 40.8013 116.017 51.5669 118.637C62.3325 121.258 73.64 120.546 83.9922 116.597C94.3444 112.648 103.253 105.648 109.538 96.523C115.823 87.3984 119.189 76.5798 119.189 65.5H129Z"/>
</mask>
<path d="M129 65.5C129 78.5676 125.031 91.327 117.618 102.089C110.205 112.85 99.6985 121.106 87.4891 125.764C75.2797 130.422 61.9436 131.261 49.2467 128.17C36.5497 125.08 25.0909 118.206 16.3876 108.459C7.68423 98.7112 2.14689 86.55 0.508788 73.5855C-1.12931 60.621 1.2091 47.4647 7.21438 35.8587C13.2197 24.2527 22.6085 14.7445 34.1378 8.59319C45.667 2.44185 58.7927 -0.0624808 71.7769 1.4118L70.67 11.1605C59.6609 9.91043 48.5317 12.0338 38.7563 17.2495C28.9808 22.4651 21.0201 30.527 15.9283 40.3675C10.8365 50.2081 8.85377 61.3631 10.2427 72.3556C11.6316 83.348 16.3267 93.6593 23.7061 101.924C31.0856 110.189 40.8013 116.017 51.5669 118.637C62.3325 121.258 73.64 120.546 83.9922 116.597C94.3444 112.648 103.253 105.648 109.538 96.523C115.823 87.3984 119.189 76.5798 119.189 65.5H129Z" stroke="#5F27CD" stroke-width="30" mask="url(#path-3-inside-1_152_20)"/>
<path d="M79.8438 60.3408V59.6641C79.8438 59.1777 79.9492 58.7354 80.1602 58.3369C80.3711 57.9385 80.6816 57.6191 81.0918 57.3789C81.502 57.1387 82.0059 57.0186 82.6035 57.0186C83.2188 57.0186 83.7314 57.1387 84.1416 57.3789C84.5576 57.6191 84.8682 57.9385 85.0732 58.3369C85.2842 58.7354 85.3896 59.1777 85.3896 59.6641V60.3408C85.3896 60.8154 85.2842 61.252 85.0732 61.6504C84.8682 62.0488 84.5605 62.3682 84.1504 62.6084C83.7402 62.8486 83.2334 62.9688 82.6299 62.9688C82.0205 62.9688 81.5078 62.8486 81.0918 62.6084C80.6816 62.3682 80.3711 62.0488 80.1602 61.6504C79.9492 61.252 79.8438 60.8154 79.8438 60.3408ZM81.5225 59.6641V60.3408C81.5225 60.5459 81.5605 60.7422 81.6367 60.9297C81.7188 61.1113 81.8418 61.2607 82.0059 61.3779C82.1758 61.4893 82.3809 61.5449 82.6211 61.5449C82.873 61.5449 83.0781 61.4893 83.2363 61.3779C83.3945 61.2607 83.5117 61.1113 83.5879 60.9297C83.6641 60.7422 83.7021 60.5459 83.7021 60.3408V59.6641C83.7021 59.4473 83.6611 59.248 83.5791 59.0664C83.5029 58.8789 83.3828 58.7295 83.2188 58.6182C83.0605 58.501 82.8555 58.4424 82.6035 58.4424C82.3691 58.4424 82.1699 58.501 82.0059 58.6182C81.8418 58.7295 81.7188 58.8789 81.6367 59.0664C81.5605 59.248 81.5225 59.4473 81.5225 59.6641ZM85.9609 67.5391V66.8623C85.9609 66.3818 86.0664 65.9424 86.2773 65.5439C86.4941 65.1455 86.8076 64.8262 87.2178 64.5859C87.6338 64.3457 88.1436 64.2256 88.7471 64.2256C89.3564 64.2256 89.8662 64.3457 90.2764 64.5859C90.6865 64.8262 90.9971 65.1455 91.208 65.5439C91.4189 65.9424 91.5244 66.3818 91.5244 66.8623V67.5391C91.5244 68.0195 91.4189 68.459 91.208 68.8574C91.0029 69.2559 90.6953 69.5752 90.2852 69.8154C89.875 70.0557 89.3682 70.1758 88.7646 70.1758C88.1553 70.1758 87.6426 70.0557 87.2266 69.8154C86.8105 69.5752 86.4941 69.2559 86.2773 68.8574C86.0664 68.459 85.9609 68.0195 85.9609 67.5391ZM87.6484 66.8623V67.5391C87.6484 67.75 87.6953 67.9492 87.7891 68.1367C87.8828 68.3242 88.0117 68.4736 88.1758 68.585C88.3457 68.6963 88.542 68.752 88.7646 68.752C89.0459 68.752 89.2656 68.6963 89.4238 68.585C89.582 68.4736 89.6904 68.3242 89.749 68.1367C89.8135 67.9492 89.8457 67.75 89.8457 67.5391V66.8623C89.8457 66.6514 89.8047 66.4551 89.7227 66.2734C89.6406 66.0859 89.5176 65.9365 89.3535 65.8252C89.1953 65.708 88.9932 65.6494 88.7471 65.6494C88.501 65.6494 88.2959 65.708 88.1318 65.8252C87.9736 65.9365 87.8535 66.0859 87.7715 66.2734C87.6895 66.4551 87.6484 66.6514 87.6484 66.8623ZM89.3711 59.0312L83.1221 69.0332L81.8916 68.3828L88.1406 58.3809L89.3711 59.0312Z" fill="black"/>
</svg>
