<svg width="315" height="27" viewBox="0 0 315 27" fill="none" xmlns="http://www.w3.org/2000/svg">
<rect width="315" height="8" rx="4" fill="#EEEEEE"/>
<rect width="186" height="8" rx="4" fill="#FFC029"/>
<path d="M293.742 13.9648H293.988V15.4209H293.872C293.321 15.4209 292.835 15.5052 292.416 15.6738C292.001 15.8424 291.655 16.0794 291.377 16.3848C291.104 16.6855 290.896 17.0433 290.755 17.458C290.614 17.8682 290.543 18.3171 290.543 18.8047V20.418C290.543 20.7962 290.582 21.1289 290.659 21.416C290.741 21.6986 290.853 21.9378 290.994 22.1338C291.14 22.3252 291.309 22.4688 291.5 22.5645C291.696 22.6602 291.91 22.708 292.143 22.708C292.375 22.708 292.585 22.6602 292.771 22.5645C292.958 22.4688 293.118 22.3343 293.25 22.1611C293.387 21.9834 293.489 21.776 293.558 21.5391C293.631 21.3021 293.667 21.0423 293.667 20.7598C293.667 20.4818 293.633 20.2243 293.564 19.9873C293.496 19.7503 293.396 19.543 293.264 19.3652C293.132 19.1829 292.967 19.0439 292.771 18.9482C292.58 18.848 292.361 18.7979 292.115 18.7979C291.796 18.7979 291.511 18.873 291.261 19.0234C291.01 19.1693 290.812 19.3607 290.666 19.5977C290.52 19.8346 290.44 20.0853 290.427 20.3496L289.818 20.0488C289.841 19.6615 289.923 19.306 290.064 18.9824C290.21 18.6589 290.404 18.3763 290.646 18.1348C290.892 17.8932 291.181 17.7064 291.514 17.5742C291.851 17.4421 292.225 17.376 292.635 17.376C293.109 17.376 293.523 17.4671 293.879 17.6494C294.234 17.8271 294.528 18.071 294.761 18.3809C294.998 18.6908 295.175 19.0485 295.294 19.4541C295.412 19.8551 295.472 20.279 295.472 20.7256C295.472 21.2041 295.394 21.6507 295.239 22.0654C295.089 22.4801 294.87 22.8424 294.583 23.1523C294.296 23.4622 293.95 23.7038 293.544 23.877C293.138 24.0501 292.683 24.1367 292.177 24.1367C291.644 24.1367 291.165 24.0365 290.741 23.8359C290.322 23.6354 289.962 23.3574 289.661 23.002C289.36 22.6465 289.13 22.2318 288.971 21.7578C288.811 21.2839 288.731 20.7712 288.731 20.2197V19.4951C288.731 18.7158 288.839 17.9912 289.053 17.3213C289.267 16.6514 289.584 16.0658 290.003 15.5645C290.427 15.0586 290.951 14.6667 291.575 14.3887C292.2 14.1061 292.922 13.9648 293.742 13.9648ZM298.691 18.2236H299.71C300.07 18.2236 300.366 18.1621 300.599 18.0391C300.836 17.9115 301.011 17.7383 301.125 17.5195C301.243 17.2962 301.303 17.0387 301.303 16.7471C301.303 16.46 301.25 16.2116 301.146 16.002C301.041 15.7878 300.881 15.6237 300.667 15.5098C300.457 15.3913 300.188 15.332 299.86 15.332C299.596 15.332 299.352 15.3844 299.129 15.4893C298.91 15.5941 298.735 15.7445 298.603 15.9404C298.475 16.1318 298.411 16.362 298.411 16.6309H296.6C296.6 16.0931 296.741 15.6214 297.023 15.2158C297.311 14.8057 297.698 14.4844 298.186 14.252C298.673 14.0195 299.218 13.9033 299.819 13.9033C300.476 13.9033 301.05 14.0127 301.542 14.2314C302.039 14.4456 302.424 14.7624 302.697 15.1816C302.975 15.6009 303.114 16.1204 303.114 16.7402C303.114 17.0365 303.044 17.3327 302.902 17.6289C302.766 17.9206 302.563 18.1849 302.294 18.4219C302.03 18.6543 301.704 18.8434 301.316 18.9893C300.934 19.1305 300.494 19.2012 299.997 19.2012H298.691V18.2236ZM298.691 19.6182V18.6543H299.997C300.558 18.6543 301.043 18.7204 301.453 18.8525C301.868 18.9801 302.21 19.1624 302.479 19.3994C302.747 19.6318 302.946 19.903 303.073 20.2129C303.205 20.5228 303.271 20.8555 303.271 21.2109C303.271 21.6758 303.185 22.0905 303.012 22.4551C302.839 22.8151 302.595 23.1204 302.28 23.3711C301.97 23.6217 301.606 23.8132 301.187 23.9453C300.767 24.0729 300.314 24.1367 299.826 24.1367C299.402 24.1367 298.99 24.0798 298.589 23.9658C298.192 23.8473 297.835 23.6719 297.516 23.4395C297.197 23.2025 296.944 22.9062 296.757 22.5508C296.57 22.1908 296.477 21.7738 296.477 21.2998H298.288C298.288 21.5732 298.354 21.8171 298.486 22.0312C298.623 22.2454 298.81 22.4141 299.047 22.5371C299.288 22.6556 299.56 22.7148 299.86 22.7148C300.193 22.7148 300.478 22.6556 300.715 22.5371C300.956 22.4141 301.141 22.2409 301.269 22.0176C301.396 21.7897 301.46 21.5186 301.46 21.2041C301.46 20.8304 301.389 20.5273 301.248 20.2949C301.107 20.0625 300.904 19.8916 300.64 19.7822C300.38 19.6729 300.07 19.6182 299.71 19.6182H298.691ZM304.666 16.4873V15.9609C304.666 15.5827 304.748 15.2386 304.912 14.9287C305.076 14.6188 305.315 14.3704 305.63 14.1836C305.949 13.9967 306.336 13.9033 306.792 13.9033C307.257 13.9033 307.646 13.9967 307.961 14.1836C308.28 14.3704 308.519 14.6188 308.679 14.9287C308.843 15.2386 308.925 15.5827 308.925 15.9609V16.4873C308.925 16.8564 308.843 17.196 308.679 17.5059C308.519 17.8158 308.282 18.0641 307.968 18.251C307.653 18.4378 307.266 18.5312 306.806 18.5312C306.345 18.5312 305.956 18.4378 305.637 18.251C305.318 18.0641 305.076 17.8158 304.912 17.5059C304.748 17.196 304.666 16.8564 304.666 16.4873ZM305.89 15.9609V16.4873C305.89 16.6605 305.922 16.8245 305.985 16.9795C306.054 17.1299 306.156 17.2529 306.293 17.3486C306.43 17.4443 306.601 17.4922 306.806 17.4922C307.011 17.4922 307.177 17.4443 307.305 17.3486C307.437 17.2529 307.535 17.1299 307.599 16.9795C307.667 16.8245 307.701 16.6605 307.701 16.4873V15.9609C307.701 15.7832 307.667 15.6169 307.599 15.4619C307.535 15.307 307.435 15.1816 307.298 15.0859C307.166 14.9902 306.997 14.9424 306.792 14.9424C306.591 14.9424 306.423 14.9902 306.286 15.0859C306.154 15.1816 306.054 15.307 305.985 15.4619C305.922 15.6169 305.89 15.7832 305.89 15.9609ZM309.444 22.0859V21.5596C309.444 21.1859 309.526 20.8441 309.69 20.5342C309.859 20.2243 310.103 19.9759 310.422 19.7891C310.741 19.6022 311.126 19.5088 311.577 19.5088C312.047 19.5088 312.438 19.6022 312.753 19.7891C313.067 19.9759 313.304 20.2243 313.464 20.5342C313.628 20.8441 313.71 21.1859 313.71 21.5596V22.0859C313.71 22.4596 313.628 22.8014 313.464 23.1113C313.304 23.4212 313.067 23.6696 312.753 23.8564C312.443 24.0433 312.058 24.1367 311.598 24.1367C311.137 24.1367 310.745 24.0433 310.422 23.8564C310.103 23.6696 309.859 23.4212 309.69 23.1113C309.526 22.8014 309.444 22.4596 309.444 22.0859ZM310.675 21.5596V22.0859C310.675 22.2637 310.711 22.43 310.784 22.585C310.857 22.7354 310.962 22.8584 311.099 22.9541C311.24 23.0498 311.404 23.0977 311.591 23.0977C311.819 23.0977 311.999 23.0498 312.131 22.9541C312.263 22.8584 312.356 22.7354 312.411 22.585C312.466 22.43 312.493 22.2637 312.493 22.0859V21.5596C312.493 21.3818 312.459 21.2178 312.391 21.0674C312.322 20.9124 312.22 20.7871 312.083 20.6914C311.951 20.5957 311.782 20.5479 311.577 20.5479C311.377 20.5479 311.208 20.5957 311.071 20.6914C310.939 20.7871 310.839 20.9124 310.771 21.0674C310.707 21.2178 310.675 21.3818 310.675 21.5596ZM312.028 15.4688L307.168 23.248L306.272 22.749L311.133 14.9697L312.028 15.4688Z" fill="#535353"/>
</svg>
