<svg width="130" height="130" viewBox="0 0 130 130" fill="none" xmlns="http://www.w3.org/2000/svg">
<path d="M51.8184 51.1426H52.5566V55.1855H52.2578C50.9219 55.1855 49.7324 55.3848 48.6895 55.7832C47.6465 56.1816 46.7617 56.75 46.0352 57.4883C45.3203 58.2148 44.7695 59.0938 44.3828 60.125C44.0078 61.1562 43.8203 62.3105 43.8203 63.5879V67.8418C43.8203 68.7559 43.9082 69.5645 44.084 70.2676C44.2715 70.959 44.5352 71.5391 44.875 72.0078C45.2266 72.4648 45.6367 72.8105 46.1055 73.0449C46.5742 73.2676 47.1016 73.3789 47.6875 73.3789C48.2383 73.3789 48.7363 73.2617 49.1816 73.0273C49.6387 72.793 50.0254 72.4648 50.3418 72.043C50.6699 71.6094 50.916 71.1055 51.0801 70.5312C51.2559 69.9453 51.3438 69.3066 51.3438 68.6152C51.3438 67.9238 51.2559 67.2852 51.0801 66.6992C50.916 66.1133 50.6699 65.6094 50.3418 65.1875C50.0137 64.7539 49.6152 64.4199 49.1465 64.1855C48.6777 63.9512 48.1504 63.834 47.5645 63.834C46.7676 63.834 46.0645 64.0215 45.4551 64.3965C44.8574 64.7598 44.3887 65.2285 44.0488 65.8027C43.709 66.377 43.5273 66.9805 43.5039 67.6133L41.9746 66.6289C42.0098 65.7266 42.1973 64.8711 42.5371 64.0625C42.8887 63.2539 43.3691 62.5391 43.9785 61.918C44.5996 61.2852 45.3438 60.793 46.2109 60.4414C47.0781 60.0781 48.0566 59.8965 49.1465 59.8965C50.3418 59.8965 51.3906 60.125 52.293 60.582C53.207 61.0391 53.9688 61.666 54.5781 62.4629C55.1875 63.2598 55.6445 64.1797 55.9492 65.2227C56.2539 66.2656 56.4062 67.3789 56.4062 68.5625C56.4062 69.8047 56.2012 70.959 55.791 72.0254C55.3926 73.0918 54.8125 74.0234 54.0508 74.8203C53.3008 75.6172 52.3984 76.2383 51.3438 76.6836C50.2891 77.1289 49.1055 77.3516 47.793 77.3516C46.4336 77.3516 45.1973 77.1055 44.084 76.6133C42.9824 76.1094 42.0332 75.4062 41.2363 74.5039C40.4395 73.6016 39.8242 72.5293 39.3906 71.2871C38.9688 70.0449 38.7578 68.6855 38.7578 67.209V65.2402C38.7578 63.1777 39.0566 61.291 39.6543 59.5801C40.2637 57.8574 41.1367 56.3691 42.2734 55.1152C43.4102 53.8496 44.7812 52.8711 46.3867 52.1797C47.9922 51.4883 49.8027 51.1426 51.8184 51.1426ZM72.4902 51.1426H73.2285V55.1855H72.9297C71.5938 55.1855 70.4043 55.3848 69.3613 55.7832C68.3184 56.1816 67.4336 56.75 66.707 57.4883C65.9922 58.2148 65.4414 59.0938 65.0547 60.125C64.6797 61.1562 64.4922 62.3105 64.4922 63.5879V67.8418C64.4922 68.7559 64.5801 69.5645 64.7559 70.2676C64.9434 70.959 65.207 71.5391 65.5469 72.0078C65.8984 72.4648 66.3086 72.8105 66.7773 73.0449C67.2461 73.2676 67.7734 73.3789 68.3594 73.3789C68.9102 73.3789 69.4082 73.2617 69.8535 73.0273C70.3105 72.793 70.6973 72.4648 71.0137 72.043C71.3418 71.6094 71.5879 71.1055 71.752 70.5312C71.9277 69.9453 72.0156 69.3066 72.0156 68.6152C72.0156 67.9238 71.9277 67.2852 71.752 66.6992C71.5879 66.1133 71.3418 65.6094 71.0137 65.1875C70.6855 64.7539 70.2871 64.4199 69.8184 64.1855C69.3496 63.9512 68.8223 63.834 68.2363 63.834C67.4395 63.834 66.7363 64.0215 66.127 64.3965C65.5293 64.7598 65.0605 65.2285 64.7207 65.8027C64.3809 66.377 64.1992 66.9805 64.1758 67.6133L62.6465 66.6289C62.6816 65.7266 62.8691 64.8711 63.209 64.0625C63.5605 63.2539 64.041 62.5391 64.6504 61.918C65.2715 61.2852 66.0156 60.793 66.8828 60.4414C67.75 60.0781 68.7285 59.8965 69.8184 59.8965C71.0137 59.8965 72.0625 60.125 72.9648 60.582C73.8789 61.0391 74.6406 61.666 75.25 62.4629C75.8594 63.2598 76.3164 64.1797 76.6211 65.2227C76.9258 66.2656 77.0781 67.3789 77.0781 68.5625C77.0781 69.8047 76.873 70.959 76.4629 72.0254C76.0645 73.0918 75.4844 74.0234 74.7227 74.8203C73.9727 75.6172 73.0703 76.2383 72.0156 76.6836C70.9609 77.1289 69.7773 77.3516 68.4648 77.3516C67.1055 77.3516 65.8691 77.1055 64.7559 76.6133C63.6543 76.1094 62.7051 75.4062 61.9082 74.5039C61.1113 73.6016 60.4961 72.5293 60.0625 71.2871C59.6406 70.0449 59.4297 68.6855 59.4297 67.209V65.2402C59.4297 63.1777 59.7285 61.291 60.3262 59.5801C60.9355 57.8574 61.8086 56.3691 62.9453 55.1152C64.082 53.8496 65.4531 52.8711 67.0586 52.1797C68.6641 51.4883 70.4746 51.1426 72.4902 51.1426Z" fill="#FFC029"/>
<circle cx="65" cy="65" r="60" stroke="#E2E2E2" stroke-width="10"/>
<mask id="path-3-inside-1_152_21" fill="white">
<path d="M129 65.5C129 75.4822 126.683 85.3282 122.232 94.263C117.78 103.198 111.316 110.977 103.347 116.989C95.3783 123.002 86.123 127.082 76.3095 128.91C66.496 130.737 56.3922 130.262 46.7935 127.522C37.1948 124.782 28.3631 119.851 20.9936 113.118C13.6241 106.384 7.91804 98.0327 4.32448 88.7197C0.730913 79.4068 -0.652034 69.3868 0.284496 59.4486C1.22103 49.5104 4.45147 39.9252 9.72154 31.4475L18.0541 36.6274C13.5856 43.8155 10.8466 51.9426 10.0525 60.3691C9.25845 68.7956 10.431 77.2914 13.478 85.1877C16.5249 93.0841 21.363 100.165 27.6115 105.874C33.86 111.583 41.3483 115.764 49.4869 118.088C57.6255 120.411 66.1924 120.814 74.5131 119.264C82.8339 117.715 90.6813 114.255 97.4379 109.157C104.194 104.06 109.676 97.4634 113.45 89.8877C117.224 82.3121 119.189 73.9638 119.189 65.5H129Z"/>
</mask>
<path d="M129 65.5C129 75.4822 126.683 85.3282 122.232 94.263C117.78 103.198 111.316 110.977 103.347 116.989C95.3783 123.002 86.123 127.082 76.3095 128.91C66.496 130.737 56.3922 130.262 46.7935 127.522C37.1948 124.782 28.3631 119.851 20.9936 113.118C13.6241 106.384 7.91804 98.0327 4.32448 88.7197C0.730913 79.4068 -0.652034 69.3868 0.284496 59.4486C1.22103 49.5104 4.45147 39.9252 9.72154 31.4475L18.0541 36.6274C13.5856 43.8155 10.8466 51.9426 10.0525 60.3691C9.25845 68.7956 10.431 77.2914 13.478 85.1877C16.5249 93.0841 21.363 100.165 27.6115 105.874C33.86 111.583 41.3483 115.764 49.4869 118.088C57.6255 120.411 66.1924 120.814 74.5131 119.264C82.8339 117.715 90.6813 114.255 97.4379 109.157C104.194 104.06 109.676 97.4634 113.45 89.8877C117.224 82.3121 119.189 73.9638 119.189 65.5H129Z" stroke="#FFC029" stroke-width="30" mask="url(#path-3-inside-1_152_21)"/>
<path d="M79.8438 60.3408V59.6641C79.8438 59.1777 79.9492 58.7354 80.1602 58.3369C80.3711 57.9385 80.6816 57.6191 81.0918 57.3789C81.502 57.1387 82.0059 57.0186 82.6035 57.0186C83.2188 57.0186 83.7314 57.1387 84.1416 57.3789C84.5576 57.6191 84.8682 57.9385 85.0732 58.3369C85.2842 58.7354 85.3896 59.1777 85.3896 59.6641V60.3408C85.3896 60.8154 85.2842 61.252 85.0732 61.6504C84.8682 62.0488 84.5605 62.3682 84.1504 62.6084C83.7402 62.8486 83.2334 62.9688 82.6299 62.9688C82.0205 62.9688 81.5078 62.8486 81.0918 62.6084C80.6816 62.3682 80.3711 62.0488 80.1602 61.6504C79.9492 61.252 79.8438 60.8154 79.8438 60.3408ZM81.5225 59.6641V60.3408C81.5225 60.5459 81.5605 60.7422 81.6367 60.9297C81.7188 61.1113 81.8418 61.2607 82.0059 61.3779C82.1758 61.4893 82.3809 61.5449 82.6211 61.5449C82.873 61.5449 83.0781 61.4893 83.2363 61.3779C83.3945 61.2607 83.5117 61.1113 83.5879 60.9297C83.6641 60.7422 83.7021 60.5459 83.7021 60.3408V59.6641C83.7021 59.4473 83.6611 59.248 83.5791 59.0664C83.5029 58.8789 83.3828 58.7295 83.2188 58.6182C83.0605 58.501 82.8555 58.4424 82.6035 58.4424C82.3691 58.4424 82.1699 58.501 82.0059 58.6182C81.8418 58.7295 81.7188 58.8789 81.6367 59.0664C81.5605 59.248 81.5225 59.4473 81.5225 59.6641ZM85.9609 67.5391V66.8623C85.9609 66.3818 86.0664 65.9424 86.2773 65.5439C86.4941 65.1455 86.8076 64.8262 87.2178 64.5859C87.6338 64.3457 88.1436 64.2256 88.7471 64.2256C89.3564 64.2256 89.8662 64.3457 90.2764 64.5859C90.6865 64.8262 90.9971 65.1455 91.208 65.5439C91.4189 65.9424 91.5244 66.3818 91.5244 66.8623V67.5391C91.5244 68.0195 91.4189 68.459 91.208 68.8574C91.0029 69.2559 90.6953 69.5752 90.2852 69.8154C89.875 70.0557 89.3682 70.1758 88.7646 70.1758C88.1553 70.1758 87.6426 70.0557 87.2266 69.8154C86.8105 69.5752 86.4941 69.2559 86.2773 68.8574C86.0664 68.459 85.9609 68.0195 85.9609 67.5391ZM87.6484 66.8623V67.5391C87.6484 67.75 87.6953 67.9492 87.7891 68.1367C87.8828 68.3242 88.0117 68.4736 88.1758 68.585C88.3457 68.6963 88.542 68.752 88.7646 68.752C89.0459 68.752 89.2656 68.6963 89.4238 68.585C89.582 68.4736 89.6904 68.3242 89.749 68.1367C89.8135 67.9492 89.8457 67.75 89.8457 67.5391V66.8623C89.8457 66.6514 89.8047 66.4551 89.7227 66.2734C89.6406 66.0859 89.5176 65.9365 89.3535 65.8252C89.1953 65.708 88.9932 65.6494 88.7471 65.6494C88.501 65.6494 88.2959 65.708 88.1318 65.8252C87.9736 65.9365 87.8535 66.0859 87.7715 66.2734C87.6895 66.4551 87.6484 66.6514 87.6484 66.8623ZM89.3711 59.0312L83.1221 69.0332L81.8916 68.3828L88.1406 58.3809L89.3711 59.0312Z" fill="black"/>
</svg>
